<svg xmlns="http://www.w3.org/2000/svg" xmlns:xlink="http://www.w3.org/1999/xlink" contentStyleType="text/css" height="514px" preserveAspectRatio="none" style="width:557px;height:514px;background:#FFFFFF;" version="1.1" viewBox="0 0 557 514" width="557px" zoomAndPan="magnify"><defs/><g><!--cluster it.unimi.di.prog2.h09--><g id="cluster_it.unimi.di.prog2.h09"><path d="M16.5,4 L184.96,4 A3.75,3.75 0 0 1 187.46,6.5 L194.46,26.2969 L547.5,26.2969 A2.5,2.5 0 0 1 550,28.7969 L550,478.5 A2.5,2.5 0 0 1 547.5,481 L16.5,481 A2.5,2.5 0 0 1 14,478.5 L14,6.5 A2.5,2.5 0 0 1 16.5,4 " fill="none" style="stroke:#000000;stroke-width:1.5;"/><line style="stroke:#000000;stroke-width:1.5;" x1="14" x2="194.46" y1="26.2969" y2="26.2969"/><text fill="#000000" font-family="sans-serif" font-size="14" font-weight="bold" lengthAdjust="spacing" textLength="167.46" x="18" y="18.9951">it.unimi.di.prog2.h09</text></g><!--class IntSetsClient--><a href="IntSetsClient.html" target="_top" title="IntSetsClient.html" xlink:actuate="onRequest" xlink:href="IntSetsClient.html" xlink:show="new" xlink:title="IntSetsClient.html" xlink:type="simple"><g id="elem_IntSetsClient"><rect codeLine="6" fill="#F1F1F1" height="64.2969" id="IntSetsClient" rx="2.5" ry="2.5" style="stroke:#181818;stroke-width:0.5;" width="163.4023" x="22.5" y="80"/><ellipse cx="56.4439" cy="96" fill="#ADD1B2" rx="11" ry="11" style="stroke:#181818;stroke-width:1.0;"/><path d="M59.4127,101.6406 Q58.8346,101.9375 58.1939,102.0781 Q57.5533,102.2344 56.8502,102.2344 Q54.3502,102.2344 53.0221,100.5938 Q51.7096,98.9375 51.7096,95.8125 Q51.7096,92.6875 53.0221,91.0313 Q54.3502,89.375 56.8502,89.375 Q57.5533,89.375 58.1939,89.5313 Q58.8502,89.6875 59.4127,89.9844 L59.4127,92.7031 Q58.7877,92.125 58.1939,91.8594 Q57.6002,91.5781 56.9752,91.5781 Q55.6314,91.5781 54.9439,92.6563 Q54.2564,93.7188 54.2564,95.8125 Q54.2564,97.9063 54.9439,98.9844 Q55.6314,100.0469 56.9752,100.0469 Q57.6002,100.0469 58.1939,99.7813 Q58.7877,99.5 59.4127,98.9219 L59.4127,101.6406 Z " fill="#000000"/><text fill="#000000" font-family="sans-serif" font-size="14" lengthAdjust="spacing" textLength="89.3047" x="74.6537" y="100.8467">IntSetsClient</text><line style="stroke:#181818;stroke-width:0.5;" x1="23.5" x2="184.9023" y1="112" y2="112"/><line style="stroke:#181818;stroke-width:0.5;" x1="23.5" x2="184.9023" y1="120" y2="120"/><ellipse cx="33.5" cy="133.6484" fill="#84BE84" rx="3" ry="3" style="stroke:#038048;stroke-width:1.0;"/><text fill="#000000" font-family="sans-serif" font-size="14" lengthAdjust="spacing" text-decoration="underline" textLength="137.4023" x="42.5" y="136.9951">main(String[]): void</text></g></a><!--class IntSet--><a href="IntSet.html" target="_top" title="IntSet.html" xlink:actuate="onRequest" xlink:href="IntSet.html" xlink:show="new" xlink:title="IntSet.html" xlink:type="simple"><g id="elem_IntSet"><rect codeLine="10" fill="#F1F1F1" height="162.0781" id="IntSet" rx="2.5" ry="2.5" style="stroke:#181818;stroke-width:0.5;" width="153.2578" x="203.5" y="31"/><ellipse cx="255.1387" cy="47" fill="#ADD1B2" rx="11" ry="11" style="stroke:#181818;stroke-width:1.0;"/><path d="M258.1074,52.6406 Q257.5293,52.9375 256.8887,53.0781 Q256.248,53.2344 255.5449,53.2344 Q253.0449,53.2344 251.7168,51.5938 Q250.4043,49.9375 250.4043,46.8125 Q250.4043,43.6875 251.7168,42.0313 Q253.0449,40.375 255.5449,40.375 Q256.248,40.375 256.8887,40.5313 Q257.5449,40.6875 258.1074,40.9844 L258.1074,43.7031 Q257.4824,43.125 256.8887,42.8594 Q256.2949,42.5781 255.6699,42.5781 Q254.3262,42.5781 253.6387,43.6563 Q252.9512,44.7188 252.9512,46.8125 Q252.9512,48.9063 253.6387,49.9844 Q254.3262,51.0469 255.6699,51.0469 Q256.2949,51.0469 256.8887,50.7813 Q257.4824,50.5 258.1074,49.9219 L258.1074,52.6406 Z " fill="#000000"/><text fill="#000000" font-family="sans-serif" font-size="14" lengthAdjust="spacing" textLength="41.4805" x="275.6387" y="51.8467">IntSet</text><line style="stroke:#181818;stroke-width:0.5;" x1="204.5" x2="355.7578" y1="63" y2="63"/><rect fill="none" height="6" style="stroke:#C82930;stroke-width:1.0;" width="6" x="211.5" y="73.6484"/><text fill="#000000" font-family="sans-serif" font-size="14" lengthAdjust="spacing" textLength="127.2578" x="223.5" y="79.9951">els: List&lt;Integer&gt;</text><line style="stroke:#181818;stroke-width:0.5;" x1="204.5" x2="355.7578" y1="87.2969" y2="87.2969"/><rect fill="#F24D5C" height="6" style="stroke:#C82930;stroke-width:1.0;" width="6" x="211.5" y="97.9453"/><text fill="#000000" font-family="sans-serif" font-size="14" lengthAdjust="spacing" textLength="118.3711" x="223.5" y="104.292">getIndex(int): int</text><ellipse cx="214.5" cy="117.2422" fill="#84BE84" rx="3" ry="3" style="stroke:#038048;stroke-width:1.0;"/><text fill="#000000" font-family="sans-serif" font-size="14" lengthAdjust="spacing" textLength="107.8848" x="223.5" y="120.5889">insert(int): void</text><ellipse cx="214.5" cy="133.5391" fill="#84BE84" rx="3" ry="3" style="stroke:#038048;stroke-width:1.0;"/><text fill="#000000" font-family="sans-serif" font-size="14" lengthAdjust="spacing" textLength="121.4404" x="223.5" y="136.8857">remove(int): void</text><ellipse cx="214.5" cy="149.8359" fill="#84BE84" rx="3" ry="3" style="stroke:#038048;stroke-width:1.0;"/><text fill="#000000" font-family="sans-serif" font-size="14" lengthAdjust="spacing" textLength="118.501" x="223.5" y="153.1826">isIn(int): boolean</text><ellipse cx="214.5" cy="166.1328" fill="#84BE84" rx="3" ry="3" style="stroke:#038048;stroke-width:1.0;"/><text fill="#000000" font-family="sans-serif" font-size="14" lengthAdjust="spacing" textLength="65.4883" x="223.5" y="169.4795">size(): int</text><ellipse cx="214.5" cy="182.4297" fill="#84BE84" rx="3" ry="3" style="stroke:#038048;stroke-width:1.0;"/><text fill="#000000" font-family="sans-serif" font-size="14" lengthAdjust="spacing" textLength="87.9512" x="223.5" y="185.7764">choose(): int</text></g></a><!--class PolyClient--><a href="PolyClient.html" target="_top" title="PolyClient.html" xlink:actuate="onRequest" xlink:href="PolyClient.html" xlink:show="new" xlink:title="PolyClient.html" xlink:type="simple"><g id="elem_PolyClient"><rect codeLine="20" fill="#F1F1F1" height="64.2969" id="PolyClient" rx="2.5" ry="2.5" style="stroke:#181818;stroke-width:0.5;" width="163.4023" x="22.5" y="319"/><ellipse cx="65.2603" cy="335" fill="#ADD1B2" rx="11" ry="11" style="stroke:#181818;stroke-width:1.0;"/><path d="M68.229,340.6406 Q67.6509,340.9375 67.0103,341.0781 Q66.3696,341.2344 65.6665,341.2344 Q63.1665,341.2344 61.8384,339.5938 Q60.5259,337.9375 60.5259,334.8125 Q60.5259,331.6875 61.8384,330.0313 Q63.1665,328.375 65.6665,328.375 Q66.3696,328.375 67.0103,328.5313 Q67.6665,328.6875 68.229,328.9844 L68.229,331.7031 Q67.604,331.125 67.0103,330.8594 Q66.4165,330.5781 65.7915,330.5781 Q64.4478,330.5781 63.7603,331.6563 Q63.0728,332.7188 63.0728,334.8125 Q63.0728,336.9063 63.7603,337.9844 Q64.4478,339.0469 65.7915,339.0469 Q66.4165,339.0469 67.0103,338.7813 Q67.604,338.5 68.229,337.9219 L68.229,340.6406 Z " fill="#000000"/><text fill="#000000" font-family="sans-serif" font-size="14" lengthAdjust="spacing" textLength="69.7129" x="85.4292" y="339.8467">PolyClient</text><line style="stroke:#181818;stroke-width:0.5;" x1="23.5" x2="184.9023" y1="351" y2="351"/><line style="stroke:#181818;stroke-width:0.5;" x1="23.5" x2="184.9023" y1="359" y2="359"/><ellipse cx="33.5" cy="372.6484" fill="#84BE84" rx="3" ry="3" style="stroke:#038048;stroke-width:1.0;"/><text fill="#000000" font-family="sans-serif" font-size="14" lengthAdjust="spacing" text-decoration="underline" textLength="137.4023" x="42.5" y="375.9951">main(String[]): void</text></g></a><!--class Poly--><a href="Poly.html" target="_top" title="Poly.html" xlink:actuate="onRequest" xlink:href="Poly.html" xlink:show="new" xlink:title="Poly.html" xlink:type="simple"><g id="elem_Poly"><rect codeLine="24" fill="#F1F1F1" height="243.5625" id="Poly" rx="2.5" ry="2.5" style="stroke:#181818;stroke-width:0.5;" width="337.8213" x="204" y="229"/><ellipse cx="354.0693" cy="245" fill="#ADD1B2" rx="11" ry="11" style="stroke:#181818;stroke-width:1.0;"/><path d="M357.0381,250.6406 Q356.46,250.9375 355.8193,251.0781 Q355.1787,251.2344 354.4756,251.2344 Q351.9756,251.2344 350.6475,249.5938 Q349.335,247.9375 349.335,244.8125 Q349.335,241.6875 350.6475,240.0313 Q351.9756,238.375 354.4756,238.375 Q355.1787,238.375 355.8193,238.5313 Q356.4756,238.6875 357.0381,238.9844 L357.0381,241.7031 Q356.4131,241.125 355.8193,240.8594 Q355.2256,240.5781 354.6006,240.5781 Q353.2568,240.5781 352.5693,241.6563 Q351.8818,242.7188 351.8818,244.8125 Q351.8818,246.9063 352.5693,247.9844 Q353.2568,249.0469 354.6006,249.0469 Q355.2256,249.0469 355.8193,248.7813 Q356.4131,248.5 357.0381,247.9219 L357.0381,250.6406 Z " fill="#000000"/><text fill="#000000" font-family="sans-serif" font-size="14" lengthAdjust="spacing" textLength="29.1826" x="374.5693" y="249.8467">Poly</text><line style="stroke:#181818;stroke-width:0.5;" x1="205" x2="540.8213" y1="261" y2="261"/><rect fill="none" height="6" style="stroke:#C82930;stroke-width:1.0;" width="6" x="212" y="271.6484"/><text fill="#000000" font-family="sans-serif" font-size="14" lengthAdjust="spacing" textLength="111.5283" x="224" y="277.9951">coefficient: int[]</text><rect fill="none" height="6" style="stroke:#C82930;stroke-width:1.0;" width="6" x="212" y="287.9453"/><text fill="#000000" font-family="sans-serif" font-size="14" lengthAdjust="spacing" textLength="76.7881" x="224" y="294.292">degree: int</text><line style="stroke:#181818;stroke-width:0.5;" x1="205" x2="540.8213" y1="301.5938" y2="301.5938"/><ellipse cx="215" cy="315.2422" fill="#84BE84" rx="3" ry="3" style="stroke:#038048;stroke-width:1.0;"/><text fill="#000000" font-family="sans-serif" font-size="14" lengthAdjust="spacing" textLength="40.1064" x="224" y="318.5889">Poly()</text><ellipse cx="215" cy="331.5391" fill="#84BE84" rx="3" ry="3" style="stroke:#038048;stroke-width:1.0;"/><text fill="#000000" font-family="sans-serif" font-size="14" lengthAdjust="spacing" textLength="85.5107" x="224" y="334.8857">Poly(int, int)</text><rect fill="#F24D5C" height="6" style="stroke:#C82930;stroke-width:1.0;" width="6" x="212" y="344.8359"/><text fill="#000000" font-family="sans-serif" font-size="14" lengthAdjust="spacing" textLength="58.3584" x="224" y="351.1826">Poly(int)</text><ellipse cx="215" cy="364.1328" fill="#84BE84" rx="3" ry="3" style="stroke:#038048;stroke-width:1.0;"/><text fill="#000000" font-family="sans-serif" font-size="14" lengthAdjust="spacing" text-decoration="underline" textLength="311.8213" x="224" y="367.4795">monomialWithCoeffAndDegree(int, int): Poly</text><ellipse cx="215" cy="380.4297" fill="#84BE84" rx="3" ry="3" style="stroke:#038048;stroke-width:1.0;"/><text fill="#000000" font-family="sans-serif" font-size="14" lengthAdjust="spacing" textLength="87.7119" x="224" y="383.7764">degree(): int</text><ellipse cx="215" cy="396.7266" fill="#84BE84" rx="3" ry="3" style="stroke:#038048;stroke-width:1.0;"/><text fill="#000000" font-family="sans-serif" font-size="14" lengthAdjust="spacing" textLength="91.3281" x="224" y="400.0732">coeff(int): int</text><ellipse cx="215" cy="413.0234" fill="#84BE84" rx="3" ry="3" style="stroke:#038048;stroke-width:1.0;"/><text fill="#000000" font-family="sans-serif" font-size="14" lengthAdjust="spacing" textLength="104.8086" x="224" y="416.3701">add(Poly): Poly</text><ellipse cx="215" cy="429.3203" fill="#84BE84" rx="3" ry="3" style="stroke:#038048;stroke-width:1.0;"/><text fill="#000000" font-family="sans-serif" font-size="14" lengthAdjust="spacing" textLength="104.8564" x="224" y="432.667">mul(Poly): Poly</text><ellipse cx="215" cy="445.6172" fill="#84BE84" rx="3" ry="3" style="stroke:#038048;stroke-width:1.0;"/><text fill="#000000" font-family="sans-serif" font-size="14" lengthAdjust="spacing" textLength="103.5098" x="224" y="448.9639">sub(Poly): Poly</text><ellipse cx="215" cy="461.9141" fill="#84BE84" rx="3" ry="3" style="stroke:#038048;stroke-width:1.0;"/><text fill="#000000" font-family="sans-serif" font-size="14" lengthAdjust="spacing" textLength="91.8408" x="224" y="465.2607">minus(): Poly</text></g></a><text fill="#888888" font-family="sans-serif" font-size="10" lengthAdjust="spacing" textLength="3.1787" x="268.9106" y="492.2822">&#160;</text><text fill="#888888" font-family="sans-serif" font-size="10" lengthAdjust="spacing" textLength="183.0908" x="178.9546" y="503.9229">UMLDoclet 2.2.0, PlantUML 1.2024.6</text><!--SRC=[hPDDJyCm38Rl_0fpGEe4gz1kL0W9RPT984sQ48UnGsYzpYArfyIT-D3-EqaPWqBBYHnInO_plexJ000SRvmfAmFMl4Yju2jKm-Oe4F0OrhWnpgWuoBAZ9hen-PCf4KZJcgcYjA1quwGSfUlp2tZxI8eZjyPxcBBEKVtO4hB2Oj5Qfskjx78PTi6tyURLAEKxEAqCSJ9NHrmkbeCCjaB58NNNRNNmw1OVelKPt93Nov269RghDYzHfrpWSqAimJBCBNvAxD7fdhOAQh33IhROYybFUGyVHImQRdDFhvXqsUPh4VyB_Uh1JEpBeTTVY_zjTDJTo_SqEHTShIYFrat1YsMR5rWwn8vZHiraq14BcMSnlSs6dspGTp1XgSZOUzBrE1PrpSMaCVzIp9e3jJq_2ko-YIZJztUOeaYYMgTeLTj-wEl7FtOIrpxvYVONislcFFGQ7Qn4ukU1xsvl9fBRy216wIWzFuEPDQmX2YTRT9w4ay4x]--></g></svg>