<svg xmlns="http://www.w3.org/2000/svg" xmlns:xlink="http://www.w3.org/1999/xlink" contentStyleType="text/css" height="490px" preserveAspectRatio="none" style="width:1390px;height:490px;background:#FFFFFF;" version="1.1" viewBox="0 0 1390 490" width="1390px" zoomAndPan="magnify"><defs/><g><!--cluster it.unimi.di.prog2.h15--><g id="cluster_it.unimi.di.prog2.h15"><path d="M36.9198,160 L205.3798,160 A3.75,3.75 0 0 1 207.8798,162.5 L214.8798,182.2969 L1337.9198,182.2969 A2.5,2.5 0 0 1 1340.4198,184.7969 L1340.4198,454.5 A2.5,2.5 0 0 1 1337.9198,457 L36.9198,457 A2.5,2.5 0 0 1 34.4198,454.5 L34.4198,162.5 A2.5,2.5 0 0 1 36.9198,160 " fill="none" style="stroke:#000000;stroke-width:1.5;"/><line style="stroke:#000000;stroke-width:1.5;" x1="34.4198" x2="214.8798" y1="182.2969" y2="182.2969"/><text fill="#000000" font-family="sans-serif" font-size="14" font-weight="bold" lengthAdjust="spacing" textLength="167.46" x="38.4198" y="174.9951">it.unimi.di.prog2.h15</text></g><!--cluster java.util--><g id="cluster_java.util"><path d="M263.9198,4 L329.3143,4 A3.75,3.75 0 0 1 331.8143,6.5 L338.8143,26.2969 L638.9198,26.2969 A2.5,2.5 0 0 1 641.4198,28.7969 L641.4198,149.5 A2.5,2.5 0 0 1 638.9198,152 L263.9198,152 A2.5,2.5 0 0 1 261.4198,149.5 L261.4198,6.5 A2.5,2.5 0 0 1 263.9198,4 " fill="none" style="stroke:#000000;stroke-width:1.5;"/><line style="stroke:#000000;stroke-width:1.5;" x1="261.4198" x2="338.8143" y1="26.2969" y2="26.2969"/><text fill="#000000" font-family="sans-serif" font-size="14" font-weight="bold" lengthAdjust="spacing" textLength="64.3945" x="265.4198" y="18.9951">java.util</text></g><!--class DecimalDigitsIG--><a href="DecimalDigitsIG.html" target="_top" title="DecimalDigitsIG.html" xlink:actuate="onRequest" xlink:href="DecimalDigitsIG.html" xlink:show="new" xlink:title="DecimalDigitsIG.html" xlink:type="simple"><g id="elem_DecimalDigitsIG"><rect codeLine="6" fill="#F1F1F1" height="113.1875" id="DecimalDigitsIG" rx="2.5" ry="2.5" style="stroke:#181818;stroke-width:0.5;" width="271.3555" x="42.9198" y="187"/><ellipse cx="118.2006" cy="203" fill="#ADD1B2" rx="11" ry="11" style="stroke:#181818;stroke-width:1.0;"/><path d="M121.1693,208.6406 Q120.5912,208.9375 119.9506,209.0781 Q119.3099,209.2344 118.6068,209.2344 Q116.1068,209.2344 114.7787,207.5938 Q113.4662,205.9375 113.4662,202.8125 Q113.4662,199.6875 114.7787,198.0313 Q116.1068,196.375 118.6068,196.375 Q119.3099,196.375 119.9506,196.5313 Q120.6068,196.6875 121.1693,196.9844 L121.1693,199.7031 Q120.5443,199.125 119.9506,198.8594 Q119.3568,198.5781 118.7318,198.5781 Q117.3881,198.5781 116.7006,199.6563 Q116.0131,200.7188 116.0131,202.8125 Q116.0131,204.9063 116.7006,205.9844 Q117.3881,207.0469 118.7318,207.0469 Q119.3568,207.0469 119.9506,206.7813 Q120.5443,206.5 121.1693,205.9219 L121.1693,208.6406 Z " fill="#000000"/><text fill="#000000" font-family="sans-serif" font-size="14" lengthAdjust="spacing" textLength="112.2939" x="138.7006" y="207.8467">DecimalDigitsIG</text><line style="stroke:#181818;stroke-width:0.5;" x1="43.9198" x2="313.2753" y1="219" y2="219"/><rect fill="none" height="6" style="stroke:#C82930;stroke-width:1.0;" width="6" x="50.9198" y="229.6484"/><text fill="#000000" font-family="sans-serif" font-size="14" lengthAdjust="spacing" textLength="94.0215" x="62.9198" y="235.9951">number: long</text><line style="stroke:#181818;stroke-width:0.5;" x1="43.9198" x2="313.2753" y1="243.2969" y2="243.2969"/><ellipse cx="53.9198" cy="256.9453" fill="#84BE84" rx="3" ry="3" style="stroke:#038048;stroke-width:1.0;"/><text fill="#000000" font-family="sans-serif" font-size="14" lengthAdjust="spacing" textLength="153.4326" x="62.9198" y="260.292">DecimalDigitsIG(long)</text><ellipse cx="53.9198" cy="273.2422" fill="#84BE84" rx="3" ry="3" style="stroke:#038048;stroke-width:1.0;"/><text fill="#000000" font-family="sans-serif" font-size="14" lengthAdjust="spacing" textLength="87.6367" x="62.9198" y="276.5889">digit(int): int</text><ellipse cx="53.9198" cy="289.5391" fill="#84BE84" rx="3" ry="3" style="stroke:#038048;stroke-width:1.0;"/><text fill="#000000" font-family="sans-serif" font-size="14" lengthAdjust="spacing" textLength="245.3555" x="62.9198" y="292.8857">nonZeroDigits(): Iterator&lt;Integer&gt;</text></g></a><!--class DecimalDigitsIG.NonZeroDigitsGeneratorIG--><a href="DecimalDigitsIG.NonZeroDigitsGeneratorIG.html" target="_top" title="DecimalDigitsIG.NonZeroDigitsGeneratorIG.html" xlink:actuate="onRequest" xlink:href="DecimalDigitsIG.NonZeroDigitsGeneratorIG.html" xlink:show="new" xlink:title="DecimalDigitsIG.NonZeroDigitsGeneratorIG.html" xlink:type="simple"><g id="elem_DecimalDigitsIG.NonZeroDigitsGeneratorIG"><rect codeLine="13" fill="#F1F1F1" height="96.8906" id="DecimalDigitsIG.NonZeroDigitsGeneratorIG" rx="2.5" ry="2.5" style="stroke:#181818;stroke-width:0.5;" width="335.4814" x="42.9198" y="344"/><ellipse cx="57.9198" cy="360" fill="#ADD1B2" rx="11" ry="11" style="stroke:#181818;stroke-width:1.0;"/><path d="M60.8885,365.6406 Q60.3104,365.9375 59.6698,366.0781 Q59.0292,366.2344 58.326,366.2344 Q55.826,366.2344 54.4979,364.5938 Q53.1854,362.9375 53.1854,359.8125 Q53.1854,356.6875 54.4979,355.0313 Q55.826,353.375 58.326,353.375 Q59.0292,353.375 59.6698,353.5313 Q60.326,353.6875 60.8885,353.9844 L60.8885,356.7031 Q60.2635,356.125 59.6698,355.8594 Q59.076,355.5781 58.451,355.5781 Q57.1073,355.5781 56.4198,356.6563 Q55.7323,357.7188 55.7323,359.8125 Q55.7323,361.9063 56.4198,362.9844 Q57.1073,364.0469 58.451,364.0469 Q59.076,364.0469 59.6698,363.7813 Q60.2635,363.5 60.8885,362.9219 L60.8885,365.6406 Z " fill="#000000"/><text fill="#000000" font-family="sans-serif" font-size="14" lengthAdjust="spacing" textLength="303.4814" x="71.9198" y="364.8467">DecimalDigitsIG.NonZeroDigitsGeneratorIG</text><line style="stroke:#181818;stroke-width:0.5;" x1="43.9198" x2="377.4012" y1="376" y2="376"/><rect fill="none" height="6" style="stroke:#C82930;stroke-width:1.0;" width="6" x="50.9198" y="386.6484"/><text fill="#000000" font-family="sans-serif" font-size="14" lengthAdjust="spacing" textLength="110.3799" x="62.9198" y="392.9951">remaining: long</text><line style="stroke:#181818;stroke-width:0.5;" x1="43.9198" x2="377.4012" y1="400.2969" y2="400.2969"/><ellipse cx="53.9198" cy="413.9453" fill="#84BE84" rx="3" ry="3" style="stroke:#038048;stroke-width:1.0;"/><text fill="#000000" font-family="sans-serif" font-size="14" lengthAdjust="spacing" textLength="133.6699" x="62.9198" y="417.292">hasNext(): boolean</text><ellipse cx="53.9198" cy="430.2422" fill="#84BE84" rx="3" ry="3" style="stroke:#038048;stroke-width:1.0;"/><text fill="#000000" font-family="sans-serif" font-size="14" lengthAdjust="spacing" textLength="101.7119" x="62.9198" y="433.5889">next(): Integer</text></g></a><!--class DecimalDigits--><a href="DecimalDigits.html" target="_top" title="DecimalDigits.html" xlink:actuate="onRequest" xlink:href="DecimalDigits.html" xlink:show="new" xlink:title="DecimalDigits.html" xlink:type="simple"><g id="elem_DecimalDigits"><rect codeLine="19" fill="#F1F1F1" height="96.8906" id="DecimalDigits" rx="2.5" ry="2.5" style="stroke:#181818;stroke-width:0.5;" width="164.4551" x="589.4198" y="195"/><ellipse cx="620.2322" cy="211" fill="#ADD1B2" rx="11" ry="11" style="stroke:#181818;stroke-width:1.0;"/><path d="M623.2009,216.6406 Q622.6228,216.9375 621.9822,217.0781 Q621.3416,217.2344 620.6384,217.2344 Q618.1384,217.2344 616.8103,215.5938 Q615.4978,213.9375 615.4978,210.8125 Q615.4978,207.6875 616.8103,206.0313 Q618.1384,204.375 620.6384,204.375 Q621.3416,204.375 621.9822,204.5313 Q622.6384,204.6875 623.2009,204.9844 L623.2009,207.7031 Q622.5759,207.125 621.9822,206.8594 Q621.3884,206.5781 620.7634,206.5781 Q619.4197,206.5781 618.7322,207.6563 Q618.0447,208.7188 618.0447,210.8125 Q618.0447,212.9063 618.7322,213.9844 Q619.4197,215.0469 620.7634,215.0469 Q621.3884,215.0469 621.9822,214.7813 Q622.5759,214.5 623.2009,213.9219 L623.2009,216.6406 Z " fill="#000000"/><text fill="#000000" font-family="sans-serif" font-size="14" lengthAdjust="spacing" textLength="97.3164" x="637.7461" y="215.8467">DecimalDigits</text><line style="stroke:#181818;stroke-width:0.5;" x1="590.4198" x2="752.8749" y1="227" y2="227"/><rect fill="none" height="6" style="stroke:#C82930;stroke-width:1.0;" width="6" x="597.4198" y="237.6484"/><text fill="#000000" font-family="sans-serif" font-size="14" lengthAdjust="spacing" textLength="94.0215" x="609.4198" y="243.9951">number: long</text><line style="stroke:#181818;stroke-width:0.5;" x1="590.4198" x2="752.8749" y1="251.2969" y2="251.2969"/><ellipse cx="600.4198" cy="264.9453" fill="#84BE84" rx="3" ry="3" style="stroke:#038048;stroke-width:1.0;"/><text fill="#000000" font-family="sans-serif" font-size="14" lengthAdjust="spacing" textLength="138.4551" x="609.4198" y="268.292">DecimalDigits(long)</text><ellipse cx="600.4198" cy="281.2422" fill="#84BE84" rx="3" ry="3" style="stroke:#038048;stroke-width:1.0;"/><text fill="#000000" font-family="sans-serif" font-size="14" lengthAdjust="spacing" textLength="87.6367" x="609.4198" y="284.5889">digit(int): int</text></g></a><!--class DecimalDigitsEG--><a href="DecimalDigitsEG.html" target="_top" title="DecimalDigitsEG.html" xlink:actuate="onRequest" xlink:href="DecimalDigitsEG.html" xlink:show="new" xlink:title="DecimalDigitsEG.html" xlink:type="simple"><g id="elem_DecimalDigitsEG"><rect codeLine="25" fill="#F1F1F1" height="113.1875" id="DecimalDigitsEG" rx="2.5" ry="2.5" style="stroke:#181818;stroke-width:0.5;" width="271.3555" x="771.9198" y="187"/><ellipse cx="844.8422" cy="203" fill="#ADD1B2" rx="11" ry="11" style="stroke:#181818;stroke-width:1.0;"/><path d="M847.8109,208.6406 Q847.2328,208.9375 846.5922,209.0781 Q845.9515,209.2344 845.2484,209.2344 Q842.7484,209.2344 841.4203,207.5938 Q840.1078,205.9375 840.1078,202.8125 Q840.1078,199.6875 841.4203,198.0313 Q842.7484,196.375 845.2484,196.375 Q845.9515,196.375 846.5922,196.5313 Q847.2484,196.6875 847.8109,196.9844 L847.8109,199.7031 Q847.1859,199.125 846.5922,198.8594 Q845.9984,198.5781 845.3734,198.5781 Q844.0297,198.5781 843.3422,199.6563 Q842.6547,200.7188 842.6547,202.8125 Q842.6547,204.9063 843.3422,205.9844 Q844.0297,207.0469 845.3734,207.0469 Q845.9984,207.0469 846.5922,206.7813 Q847.1859,206.5 847.8109,205.9219 L847.8109,208.6406 Z " fill="#000000"/><text fill="#000000" font-family="sans-serif" font-size="14" lengthAdjust="spacing" textLength="117.0107" x="865.3422" y="207.8467">DecimalDigitsEG</text><line style="stroke:#181818;stroke-width:0.5;" x1="772.9198" x2="1042.2753" y1="219" y2="219"/><rect fill="none" height="6" style="stroke:#C82930;stroke-width:1.0;" width="6" x="779.9198" y="229.6484"/><text fill="#000000" font-family="sans-serif" font-size="14" lengthAdjust="spacing" textLength="94.0215" x="791.9198" y="235.9951">number: long</text><line style="stroke:#181818;stroke-width:0.5;" x1="772.9198" x2="1042.2753" y1="243.2969" y2="243.2969"/><ellipse cx="782.9198" cy="256.9453" fill="#84BE84" rx="3" ry="3" style="stroke:#038048;stroke-width:1.0;"/><text fill="#000000" font-family="sans-serif" font-size="14" lengthAdjust="spacing" textLength="158.1494" x="791.9198" y="260.292">DecimalDigitsEG(long)</text><ellipse cx="782.9198" cy="273.2422" fill="#84BE84" rx="3" ry="3" style="stroke:#038048;stroke-width:1.0;"/><text fill="#000000" font-family="sans-serif" font-size="14" lengthAdjust="spacing" textLength="87.6367" x="791.9198" y="276.5889">digit(int): int</text><ellipse cx="782.9198" cy="289.5391" fill="#84BE84" rx="3" ry="3" style="stroke:#038048;stroke-width:1.0;"/><text fill="#000000" font-family="sans-serif" font-size="14" lengthAdjust="spacing" textLength="245.3555" x="791.9198" y="292.8857">nonZeroDigits(): Iterator&lt;Integer&gt;</text></g></a><!--class NonZeroDigitsGenerator--><a href="NonZeroDigitsGenerator.html" target="_top" title="NonZeroDigitsGenerator.html" xlink:actuate="onRequest" xlink:href="NonZeroDigitsGenerator.html" xlink:show="new" xlink:title="NonZeroDigitsGenerator.html" xlink:type="simple"><g id="elem_NonZeroDigitsGenerator"><rect codeLine="32" fill="#F1F1F1" height="113.1875" id="NonZeroDigitsGenerator" rx="2.5" ry="2.5" style="stroke:#181818;stroke-width:0.5;" width="238.8984" x="331.9198" y="187"/><ellipse cx="362.7322" cy="203" fill="#ADD1B2" rx="11" ry="11" style="stroke:#181818;stroke-width:1.0;"/><path d="M365.7009,208.6406 Q365.1228,208.9375 364.4822,209.0781 Q363.8416,209.2344 363.1384,209.2344 Q360.6384,209.2344 359.3103,207.5938 Q357.9978,205.9375 357.9978,202.8125 Q357.9978,199.6875 359.3103,198.0313 Q360.6384,196.375 363.1384,196.375 Q363.8416,196.375 364.4822,196.5313 Q365.1384,196.6875 365.7009,196.9844 L365.7009,199.7031 Q365.0759,199.125 364.4822,198.8594 Q363.8884,198.5781 363.2634,198.5781 Q361.9197,198.5781 361.2322,199.6563 Q360.5447,200.7188 360.5447,202.8125 Q360.5447,204.9063 361.2322,205.9844 Q361.9197,207.0469 363.2634,207.0469 Q363.8884,207.0469 364.4822,206.7813 Q365.0759,206.5 365.7009,205.9219 L365.7009,208.6406 Z " fill="#000000"/><text fill="#000000" font-family="sans-serif" font-size="14" lengthAdjust="spacing" textLength="171.7598" x="380.2461" y="207.8467">NonZeroDigitsGenerator</text><line style="stroke:#181818;stroke-width:0.5;" x1="332.9198" x2="569.8182" y1="219" y2="219"/><rect fill="none" height="6" style="stroke:#C82930;stroke-width:1.0;" width="6" x="339.9198" y="229.6484"/><text fill="#000000" font-family="sans-serif" font-size="14" lengthAdjust="spacing" textLength="110.3799" x="351.9198" y="235.9951">remaining: long</text><line style="stroke:#181818;stroke-width:0.5;" x1="332.9198" x2="569.8182" y1="243.2969" y2="243.2969"/><polygon fill="#FFFF44" points="342.9198,251.9453,346.9198,255.9453,342.9198,259.9453,338.9198,255.9453" style="stroke:#B38D22;stroke-width:1.0;"/><text fill="#000000" font-family="sans-serif" font-size="14" lengthAdjust="spacing" textLength="212.8984" x="351.9198" y="260.292">NonZeroDigitsGenerator(long)</text><ellipse cx="342.9198" cy="273.2422" fill="#84BE84" rx="3" ry="3" style="stroke:#038048;stroke-width:1.0;"/><text fill="#000000" font-family="sans-serif" font-size="14" lengthAdjust="spacing" textLength="133.6699" x="351.9198" y="276.5889">hasNext(): boolean</text><ellipse cx="342.9198" cy="289.5391" fill="#84BE84" rx="3" ry="3" style="stroke:#038048;stroke-width:1.0;"/><text fill="#000000" font-family="sans-serif" font-size="14" lengthAdjust="spacing" textLength="101.7119" x="351.9198" y="292.8857">next(): Integer</text></g></a><!--class DecimalDigitsNSG--><a href="DecimalDigitsNSG.html" target="_top" title="DecimalDigitsNSG.html" xlink:actuate="onRequest" xlink:href="DecimalDigitsNSG.html" xlink:show="new" xlink:title="DecimalDigitsNSG.html" xlink:type="simple"><g id="elem_DecimalDigitsNSG"><rect codeLine="39" fill="#F1F1F1" height="113.1875" id="DecimalDigitsNSG" rx="2.5" ry="2.5" style="stroke:#181818;stroke-width:0.5;" width="271.3555" x="1060.9198" y="187"/><ellipse cx="1128.5853" cy="203" fill="#ADD1B2" rx="11" ry="11" style="stroke:#181818;stroke-width:1.0;"/><path d="M1131.5541,208.6406 Q1130.9759,208.9375 1130.3353,209.0781 Q1129.6947,209.2344 1128.9916,209.2344 Q1126.4916,209.2344 1125.1634,207.5938 Q1123.8509,205.9375 1123.8509,202.8125 Q1123.8509,199.6875 1125.1634,198.0313 Q1126.4916,196.375 1128.9916,196.375 Q1129.6947,196.375 1130.3353,196.5313 Q1130.9916,196.6875 1131.5541,196.9844 L1131.5541,199.7031 Q1130.9291,199.125 1130.3353,198.8594 Q1129.7416,198.5781 1129.1166,198.5781 Q1127.7728,198.5781 1127.0853,199.6563 Q1126.3978,200.7188 1126.3978,202.8125 Q1126.3978,204.9063 1127.0853,205.9844 Q1127.7728,207.0469 1129.1166,207.0469 Q1129.7416,207.0469 1130.3353,206.7813 Q1130.9291,206.5 1131.5541,205.9219 L1131.5541,208.6406 Z " fill="#000000"/><text fill="#000000" font-family="sans-serif" font-size="14" lengthAdjust="spacing" textLength="127.5244" x="1149.0853" y="207.8467">DecimalDigitsNSG</text><line style="stroke:#181818;stroke-width:0.5;" x1="1061.9198" x2="1331.2753" y1="219" y2="219"/><rect fill="none" height="6" style="stroke:#C82930;stroke-width:1.0;" width="6" x="1068.9198" y="229.6484"/><text fill="#000000" font-family="sans-serif" font-size="14" lengthAdjust="spacing" textLength="94.0215" x="1080.9198" y="235.9951">number: long</text><line style="stroke:#181818;stroke-width:0.5;" x1="1061.9198" x2="1331.2753" y1="243.2969" y2="243.2969"/><ellipse cx="1071.9198" cy="256.9453" fill="#84BE84" rx="3" ry="3" style="stroke:#038048;stroke-width:1.0;"/><text fill="#000000" font-family="sans-serif" font-size="14" lengthAdjust="spacing" textLength="168.6631" x="1080.9198" y="260.292">DecimalDigitsNSG(long)</text><ellipse cx="1071.9198" cy="273.2422" fill="#84BE84" rx="3" ry="3" style="stroke:#038048;stroke-width:1.0;"/><text fill="#000000" font-family="sans-serif" font-size="14" lengthAdjust="spacing" textLength="87.6367" x="1080.9198" y="276.5889">digit(int): int</text><ellipse cx="1071.9198" cy="289.5391" fill="#84BE84" rx="3" ry="3" style="stroke:#038048;stroke-width:1.0;"/><text fill="#000000" font-family="sans-serif" font-size="14" lengthAdjust="spacing" textLength="245.3555" x="1080.9198" y="292.8857">nonZeroDigits(): Iterator&lt;Integer&gt;</text></g></a><!--class DecimalDigitsNSG.NonZeroDigitsGeneratorNS--><a href="DecimalDigitsNSG.NonZeroDigitsGeneratorNS.html" target="_top" title="DecimalDigitsNSG.NonZeroDigitsGeneratorNS.html" xlink:actuate="onRequest" xlink:href="DecimalDigitsNSG.NonZeroDigitsGeneratorNS.html" xlink:show="new" xlink:title="DecimalDigitsNSG.NonZeroDigitsGeneratorNS.html" xlink:type="simple"><g id="elem_DecimalDigitsNSG.NonZeroDigitsGeneratorNS"><rect codeLine="46" fill="#F1F1F1" height="113.1875" id="DecimalDigitsNSG.NonZeroDigitsGeneratorNS" rx="2.5" ry="2.5" style="stroke:#181818;stroke-width:0.5;" width="355.0938" x="976.9198" y="336"/><ellipse cx="991.9198" cy="352" fill="#ADD1B2" rx="11" ry="11" style="stroke:#181818;stroke-width:1.0;"/><path d="M994.8885,357.6406 Q994.3104,357.9375 993.6698,358.0781 Q993.0292,358.2344 992.326,358.2344 Q989.826,358.2344 988.4979,356.5938 Q987.1854,354.9375 987.1854,351.8125 Q987.1854,348.6875 988.4979,347.0313 Q989.826,345.375 992.326,345.375 Q993.0292,345.375 993.6698,345.5313 Q994.326,345.6875 994.8885,345.9844 L994.8885,348.7031 Q994.2635,348.125 993.6698,347.8594 Q993.076,347.5781 992.451,347.5781 Q991.1073,347.5781 990.4198,348.6563 Q989.7323,349.7188 989.7323,351.8125 Q989.7323,353.9063 990.4198,354.9844 Q991.1073,356.0469 992.451,356.0469 Q993.076,356.0469 993.6698,355.7813 Q994.2635,355.5 994.8885,354.9219 L994.8885,357.6406 Z " fill="#000000"/><text fill="#000000" font-family="sans-serif" font-size="14" lengthAdjust="spacing" textLength="323.0938" x="1005.9198" y="356.8467">DecimalDigitsNSG.NonZeroDigitsGeneratorNS</text><line style="stroke:#181818;stroke-width:0.5;" x1="977.9198" x2="1331.0135" y1="368" y2="368"/><rect fill="none" height="6" style="stroke:#C82930;stroke-width:1.0;" width="6" x="984.9198" y="378.6484"/><text fill="#000000" font-family="sans-serif" font-size="14" lengthAdjust="spacing" textLength="110.3799" x="996.9198" y="384.9951">remaining: long</text><line style="stroke:#181818;stroke-width:0.5;" x1="977.9198" x2="1331.0135" y1="392.2969" y2="392.2969"/><rect fill="#F24D5C" height="6" style="stroke:#C82930;stroke-width:1.0;" width="6" x="984.9198" y="402.9453"/><text fill="#000000" font-family="sans-serif" font-size="14" lengthAdjust="spacing" textLength="232.2578" x="996.9198" y="409.292">NonZeroDigitsGeneratorNS(long)</text><ellipse cx="987.9198" cy="422.2422" fill="#84BE84" rx="3" ry="3" style="stroke:#038048;stroke-width:1.0;"/><text fill="#000000" font-family="sans-serif" font-size="14" lengthAdjust="spacing" textLength="133.6699" x="996.9198" y="425.5889">hasNext(): boolean</text><ellipse cx="987.9198" cy="438.5391" fill="#84BE84" rx="3" ry="3" style="stroke:#038048;stroke-width:1.0;"/><text fill="#000000" font-family="sans-serif" font-size="14" lengthAdjust="spacing" textLength="101.7119" x="996.9198" y="441.8857">next(): Integer</text></g></a><!--class DecimalDigitsAG--><a href="DecimalDigitsAG.html" target="_top" title="DecimalDigitsAG.html" xlink:actuate="onRequest" xlink:href="DecimalDigitsAG.html" xlink:show="new" xlink:title="DecimalDigitsAG.html" xlink:type="simple"><g id="elem_DecimalDigitsAG"><rect codeLine="53" fill="#F1F1F1" height="96.8906" id="DecimalDigitsAG" rx="2.5" ry="2.5" style="stroke:#181818;stroke-width:0.5;" width="271.3555" x="535.9198" y="344"/><ellipse cx="608.4764" cy="360" fill="#ADD1B2" rx="11" ry="11" style="stroke:#181818;stroke-width:1.0;"/><path d="M611.4452,365.6406 Q610.8671,365.9375 610.2264,366.0781 Q609.5858,366.2344 608.8827,366.2344 Q606.3827,366.2344 605.0546,364.5938 Q603.7421,362.9375 603.7421,359.8125 Q603.7421,356.6875 605.0546,355.0313 Q606.3827,353.375 608.8827,353.375 Q609.5858,353.375 610.2264,353.5313 Q610.8827,353.6875 611.4452,353.9844 L611.4452,356.7031 Q610.8202,356.125 610.2264,355.8594 Q609.6327,355.5781 609.0077,355.5781 Q607.6639,355.5781 606.9764,356.6563 Q606.2889,357.7188 606.2889,359.8125 Q606.2889,361.9063 606.9764,362.9844 Q607.6639,364.0469 609.0077,364.0469 Q609.6327,364.0469 610.2264,363.7813 Q610.8202,363.5 611.4452,362.9219 L611.4452,365.6406 Z " fill="#000000"/><text fill="#000000" font-family="sans-serif" font-size="14" lengthAdjust="spacing" textLength="117.7422" x="628.9764" y="364.8467">DecimalDigitsAG</text><line style="stroke:#181818;stroke-width:0.5;" x1="536.9198" x2="806.2753" y1="376" y2="376"/><rect fill="none" height="6" style="stroke:#C82930;stroke-width:1.0;" width="6" x="543.9198" y="386.6484"/><text fill="#000000" font-family="sans-serif" font-size="14" lengthAdjust="spacing" textLength="94.0215" x="555.9198" y="392.9951">number: long</text><line style="stroke:#181818;stroke-width:0.5;" x1="536.9198" x2="806.2753" y1="400.2969" y2="400.2969"/><ellipse cx="546.9198" cy="413.9453" fill="#84BE84" rx="3" ry="3" style="stroke:#038048;stroke-width:1.0;"/><text fill="#000000" font-family="sans-serif" font-size="14" lengthAdjust="spacing" textLength="158.8809" x="555.9198" y="417.292">DecimalDigitsAG(long)</text><ellipse cx="546.9198" cy="430.2422" fill="#84BE84" rx="3" ry="3" style="stroke:#038048;stroke-width:1.0;"/><text fill="#000000" font-family="sans-serif" font-size="14" lengthAdjust="spacing" textLength="245.3555" x="555.9198" y="433.5889">nonZeroDigits(): Iterator&lt;Integer&gt;</text></g></a><!--class Iterator--><a href="https://docs.oracle.com/en/java/javase/21/docs/api/java.base/java/util/Iterator.html?is-external=true" target="_top" title="https://docs.oracle.com/en/java/javase/21/docs/api/java.base/java/util/Iterator.html?is-external=true" xlink:actuate="onRequest" xlink:href="https://docs.oracle.com/en/java/javase/21/docs/api/java.base/java/util/Iterator.html?is-external=true" xlink:show="new" xlink:title="https://docs.oracle.com/en/java/javase/21/docs/api/java.base/java/util/Iterator.html?is-external=true" xlink:type="simple"><g id="elem_Iterator"><rect codeLine="62" fill="#F1F1F1" height="113.1875" id="Iterator" rx="2.5" ry="2.5" style="stroke:#181818;stroke-width:0.5;" width="363.3809" x="269.9198" y="31"/><ellipse cx="415.3807" cy="47" fill="#B4A7E5" rx="11" ry="11" style="stroke:#181818;stroke-width:1.0;"/><path d="M411.3026,42.7656 L411.3026,40.6094 L418.6932,40.6094 L418.6932,42.7656 L416.2245,42.7656 L416.2245,50.8438 L418.6932,50.8438 L418.6932,53 L411.3026,53 L411.3026,50.8438 L413.7714,50.8438 L413.7714,42.7656 L411.3026,42.7656 Z " fill="#000000"/><text fill="#000000" font-family="sans-serif" font-size="14" font-style="italic" lengthAdjust="spacing" textLength="52.377" x="435.8807" y="51.8467">Iterator</text><rect fill="#FFFFFF" height="15.9688" style="stroke:#181818;stroke-width:1.0;stroke-dasharray:2.0,2.0;" width="9.582" x="626.7186" y="28"/><text fill="#000000" font-family="sans-serif" font-size="12" font-style="italic" lengthAdjust="spacing" textLength="7.582" x="627.7186" y="40.1387">E</text><line style="stroke:#181818;stroke-width:0.5;" x1="270.9198" x2="632.3007" y1="63" y2="63"/><line style="stroke:#181818;stroke-width:0.5;" x1="270.9198" x2="632.3007" y1="71" y2="71"/><ellipse cx="280.9198" cy="84.6484" fill="#84BE84" rx="3" ry="3" style="stroke:#038048;stroke-width:1.0;"/><text fill="#000000" font-family="sans-serif" font-size="14" font-style="italic" lengthAdjust="spacing" textLength="133.6699" x="289.9198" y="87.9951">hasNext(): boolean</text><ellipse cx="280.9198" cy="100.9453" fill="#84BE84" rx="3" ry="3" style="stroke:#038048;stroke-width:1.0;"/><text fill="#000000" font-family="sans-serif" font-size="14" font-style="italic" lengthAdjust="spacing" textLength="60.1973" x="289.9198" y="104.292">next(): E</text><ellipse cx="280.9198" cy="117.2422" fill="#84BE84" rx="3" ry="3" style="stroke:#038048;stroke-width:1.0;"/><text fill="#000000" font-family="sans-serif" font-size="14" lengthAdjust="spacing" textLength="103.1885" x="289.9198" y="120.5889">remove(): void</text><ellipse cx="280.9198" cy="133.5391" fill="#84BE84" rx="3" ry="3" style="stroke:#038048;stroke-width:1.0;"/><text fill="#000000" font-family="sans-serif" font-size="14" lengthAdjust="spacing" textLength="337.3809" x="289.9198" y="136.8857">forEachRemaining(Consumer&lt;? super E&gt;): void</text></g></a><polygon fill="none" points="269.7412,96.8276,251.2806,92.4449,252.3432,104.3978,269.7412,96.8276" style="stroke:#181818;stroke-width:1.0;"/><path d="M251.8119,98.4214 C153.654,107.1471 64.2743,123.4196 33.4198,160 C-6.6978,207.5624 1.0648,246.8515 33.4198,300 C44.2124,317.7287 59.6689,332.1733 77.0102,343.8993 " fill="none" style="stroke:#181818;stroke-width:1.0;stroke-dasharray:7.0,7.0;"/><ellipse cx="192.2193" cy="307.8913" fill="#FFFFFF" rx="8" ry="8" style="stroke:#181818;stroke-width:1.0;"/><line style="stroke:#181818;stroke-width:1.0;" x1="193.9209" x2="190.5176" y1="315.7083" y2="300.0744"/><line style="stroke:#181818;stroke-width:1.0;" x1="184.4023" x2="200.0362" y1="309.593" y2="306.1897"/><path d="M193.9209,315.7083 C197.0359,330.0178 196.9578,329.6589 199.9805,343.5447 " fill="none" style="stroke:#181818;stroke-width:1.0;"/><polygon fill="none" points="451.4198,144.0975,445.4198,162.0975,457.4198,162.0975,451.4198,144.0975" style="stroke:#181818;stroke-width:1.0;"/><path d="M451.4198,162.0975 C451.4198,176.0547 451.4198,173.0309 451.4198,186.9841 " fill="none" style="stroke:#181818;stroke-width:1.0;stroke-dasharray:7.0,7.0;"/><polygon fill="none" points="633.0592,90.2011,650.9536,96.509,651.1594,84.5108,633.0592,90.2011" style="stroke:#181818;stroke-width:1.0;"/><path d="M651.0565,90.5099 C897.442,94.7377 1294.4565,109.1125 1341.4198,160 C1383.6191,205.7255 1374.3591,247.2116 1341.4198,300 C1332.714,313.9519 1321.1956,325.8347 1308.1394,335.9433 " fill="none" style="stroke:#181818;stroke-width:1.0;stroke-dasharray:7.0,7.0;"/><ellipse cx="1178.3436" cy="307.7666" fill="#FFFFFF" rx="8" ry="8" style="stroke:#181818;stroke-width:1.0;"/><line style="stroke:#181818;stroke-width:1.0;" x1="1176.1459" x2="1180.5414" y1="315.4588" y2="300.0744"/><line style="stroke:#181818;stroke-width:1.0;" x1="1170.6514" x2="1186.0358" y1="305.5688" y2="309.9644"/><path d="M1176.1459,315.4588 C1172.8008,327.1666 1173.6666,324.1363 1170.3206,335.847 " fill="none" style="stroke:#181818;stroke-width:1.0;"/><text fill="#888888" font-family="sans-serif" font-size="10" lengthAdjust="spacing" textLength="3.1787" x="653.9106" y="468.2822">&#160;</text><text fill="#888888" font-family="sans-serif" font-size="10" lengthAdjust="spacing" textLength="183.0908" x="563.9546" y="479.9229">UMLDoclet 2.2.0, PlantUML 1.2024.6</text><!--SRC=[nLLHRzem47xlhxXfcWJgugn8UuaO5HfHXRIXQTLUrlRX24VYBR4Zsq6RElvxxL1Q0gP0sRey175t_dpVzvrZ081NfSAqGCZnjwmCw88C2Zon6T1a_rE92erK44KdTRJ4v2Uc1DomIl22imbdfP9fXsLdx-5sKUIU94UjOK09Bp0Vy9GRFRo0gwkr2CjCaT_Ss9MmyWIYAiQa8iYbI1kPqxNrBLVHRfPCNAx5XMb7OD_Df93YEocvMD-o5KD3DSNkK1XAIVKUwkSxsB3HAjO5YGMGb-QsqYty5HN81HUfJu8CzOX-6TVyMCgSKAnHl4_U4zgJpthJnpbpY2zFznLlo1aVEJNnoqwDttfBofzunaIyzYFvMFwRsHbTRfXaGyUvP07-t-5stVj57Ltwc6whVOQPmJQibxEpl-5c_qWp-rul3xThtho5Vk0CMMLuljAM7GfIKqpe4ItkMJwPCQMEmd0Y4ysamYGdbiWY914wcFgbAUoSrHKXbhmEiR6BrXLket09MkjnpdLW5IObCFzWL4KR0jtYM1kxcPdlD6krTEbRt1JCpesSaKlC99yqSrEfOaoohylHQdsKGbS5gUuvwAea1N5lVU5yLTG7CQDeIHAwVnZpt_LHjEyLLuFlXm6dGV1NjZkKYn_iU5cU-ZRihOlxkkuhpCuD4tBd0wPIkfzhyUtpfu6qPy50XtNOkxVm9KTXR1JUp4XfBaMhVGS0]--></g></svg>