<svg xmlns="http://www.w3.org/2000/svg" xmlns:xlink="http://www.w3.org/1999/xlink" contentStyleType="text/css" height="483px" preserveAspectRatio="none" style="width:753px;height:483px;background:#FFFFFF;" version="1.1" viewBox="0 0 753 483" width="753px" zoomAndPan="magnify"><defs/><g><!--cluster it.unimi.di.prog2.s09--><g id="cluster_it.unimi.di.prog2.s09"><path d="M16.5,4 L183.3262,4 A3.75,3.75 0 0 1 185.8262,6.5 L192.8262,26.2969 L637.5,26.2969 A2.5,2.5 0 0 1 640,28.7969 L640,447.5 A2.5,2.5 0 0 1 637.5,450 L16.5,450 A2.5,2.5 0 0 1 14,447.5 L14,6.5 A2.5,2.5 0 0 1 16.5,4 " fill="none" style="stroke:#000000;stroke-width:1.5;"/><line style="stroke:#000000;stroke-width:1.5;" x1="14" x2="192.8262" y1="26.2969" y2="26.2969"/><text fill="#000000" font-family="sans-serif" font-size="14" font-weight="bold" lengthAdjust="spacing" textLength="165.8262" x="18" y="18.9951">it.unimi.di.prog2.s09</text></g><!--cluster java.lang--><g id="cluster_java.lang"><path d="M650.5,93.5 L723.8721,93.5 A3.75,3.75 0 0 1 726.3721,96 L733.3721,115.7969 L743.5,115.7969 A2.5,2.5 0 0 1 746,118.2969 L746,174 A2.5,2.5 0 0 1 743.5,176.5 L650.5,176.5 A2.5,2.5 0 0 1 648,174 L648,96 A2.5,2.5 0 0 1 650.5,93.5 " fill="none" style="stroke:#000000;stroke-width:1.5;"/><line style="stroke:#000000;stroke-width:1.5;" x1="648" x2="733.3721" y1="115.7969" y2="115.7969"/><text fill="#000000" font-family="sans-serif" font-size="14" font-weight="bold" lengthAdjust="spacing" textLength="72.3721" x="652" y="108.4951">java.lang</text></g><!--class Poly--><a href="Poly.html" target="_top" title="Poly.html" xlink:actuate="onRequest" xlink:href="Poly.html" xlink:show="new" xlink:title="Poly.html" xlink:type="simple"><g id="elem_Poly"><rect codeLine="6" fill="#F1F1F1" height="210.9688" id="Poly" rx="2.5" ry="2.5" style="stroke:#181818;stroke-width:0.5;" width="137.5283" x="312" y="39"/><ellipse cx="361.9229" cy="55" fill="#ADD1B2" rx="11" ry="11" style="stroke:#181818;stroke-width:1.0;"/><path d="M364.8916,60.6406 Q364.3135,60.9375 363.6729,61.0781 Q363.0322,61.2344 362.3291,61.2344 Q359.8291,61.2344 358.501,59.5938 Q357.1885,57.9375 357.1885,54.8125 Q357.1885,51.6875 358.501,50.0313 Q359.8291,48.375 362.3291,48.375 Q363.0322,48.375 363.6729,48.5313 Q364.3291,48.6875 364.8916,48.9844 L364.8916,51.7031 Q364.2666,51.125 363.6729,50.8594 Q363.0791,50.5781 362.4541,50.5781 Q361.1104,50.5781 360.4229,51.6563 Q359.7354,52.7188 359.7354,54.8125 Q359.7354,56.9063 360.4229,57.9844 Q361.1104,59.0469 362.4541,59.0469 Q363.0791,59.0469 363.6729,58.7813 Q364.2666,58.5 364.8916,57.9219 L364.8916,60.6406 Z " fill="#000000"/><text fill="#000000" font-family="sans-serif" font-size="14" lengthAdjust="spacing" textLength="29.1826" x="382.4229" y="59.8467">Poly</text><line style="stroke:#181818;stroke-width:0.5;" x1="313" x2="448.5283" y1="71" y2="71"/><rect fill="none" height="6" style="stroke:#C82930;stroke-width:1.0;" width="6" x="320" y="81.6484"/><text fill="#000000" font-family="sans-serif" font-size="14" lengthAdjust="spacing" textLength="111.5283" x="332" y="87.9951">coefficient: int[]</text><line style="stroke:#181818;stroke-width:0.5;" x1="313" x2="448.5283" y1="95.2969" y2="95.2969"/><ellipse cx="323" cy="108.9453" fill="#84BE84" rx="3" ry="3" style="stroke:#038048;stroke-width:1.0;"/><text fill="#000000" font-family="sans-serif" font-size="14" lengthAdjust="spacing" textLength="40.1064" x="332" y="112.292">Poly()</text><ellipse cx="323" cy="125.2422" fill="#84BE84" rx="3" ry="3" style="stroke:#038048;stroke-width:1.0;"/><text fill="#000000" font-family="sans-serif" font-size="14" lengthAdjust="spacing" textLength="85.5107" x="332" y="128.5889">Poly(int, int)</text><rect fill="#F24D5C" height="6" style="stroke:#C82930;stroke-width:1.0;" width="6" x="320" y="138.5391"/><text fill="#000000" font-family="sans-serif" font-size="14" lengthAdjust="spacing" textLength="58.3584" x="332" y="144.8857">Poly(int)</text><ellipse cx="323" cy="157.8359" fill="#84BE84" rx="3" ry="3" style="stroke:#038048;stroke-width:1.0;"/><text fill="#000000" font-family="sans-serif" font-size="14" lengthAdjust="spacing" textLength="87.7119" x="332" y="161.1826">degree(): int</text><ellipse cx="323" cy="174.1328" fill="#84BE84" rx="3" ry="3" style="stroke:#038048;stroke-width:1.0;"/><text fill="#000000" font-family="sans-serif" font-size="14" lengthAdjust="spacing" textLength="91.3281" x="332" y="177.4795">coeff(int): int</text><ellipse cx="323" cy="190.4297" fill="#84BE84" rx="3" ry="3" style="stroke:#038048;stroke-width:1.0;"/><text fill="#000000" font-family="sans-serif" font-size="14" lengthAdjust="spacing" textLength="104.8086" x="332" y="193.7764">add(Poly): Poly</text><ellipse cx="323" cy="206.7266" fill="#84BE84" rx="3" ry="3" style="stroke:#038048;stroke-width:1.0;"/><text fill="#000000" font-family="sans-serif" font-size="14" lengthAdjust="spacing" textLength="104.8564" x="332" y="210.0732">mul(Poly): Poly</text><ellipse cx="323" cy="223.0234" fill="#84BE84" rx="3" ry="3" style="stroke:#038048;stroke-width:1.0;"/><text fill="#000000" font-family="sans-serif" font-size="14" lengthAdjust="spacing" textLength="103.5098" x="332" y="226.3701">sub(Poly): Poly</text><ellipse cx="323" cy="239.3203" fill="#84BE84" rx="3" ry="3" style="stroke:#038048;stroke-width:1.0;"/><text fill="#000000" font-family="sans-serif" font-size="14" lengthAdjust="spacing" textLength="91.8408" x="332" y="242.667">minus(): Poly</text></g></a><!--class PolyClient--><a href="PolyClient.html" target="_top" title="PolyClient.html" xlink:actuate="onRequest" xlink:href="PolyClient.html" xlink:show="new" xlink:title="PolyClient.html" xlink:type="simple"><g id="elem_PolyClient"><rect codeLine="19" fill="#F1F1F1" height="64.2969" id="PolyClient" rx="2.5" ry="2.5" style="stroke:#181818;stroke-width:0.5;" width="163.4023" x="468.5" y="112.5"/><ellipse cx="511.2603" cy="128.5" fill="#ADD1B2" rx="11" ry="11" style="stroke:#181818;stroke-width:1.0;"/><path d="M514.229,134.1406 Q513.6509,134.4375 513.0103,134.5781 Q512.3696,134.7344 511.6665,134.7344 Q509.1665,134.7344 507.8384,133.0938 Q506.5259,131.4375 506.5259,128.3125 Q506.5259,125.1875 507.8384,123.5313 Q509.1665,121.875 511.6665,121.875 Q512.3696,121.875 513.0103,122.0313 Q513.6665,122.1875 514.229,122.4844 L514.229,125.2031 Q513.604,124.625 513.0103,124.3594 Q512.4165,124.0781 511.7915,124.0781 Q510.4478,124.0781 509.7603,125.1563 Q509.0728,126.2188 509.0728,128.3125 Q509.0728,130.4063 509.7603,131.4844 Q510.4478,132.5469 511.7915,132.5469 Q512.4165,132.5469 513.0103,132.2813 Q513.604,132 514.229,131.4219 L514.229,134.1406 Z " fill="#000000"/><text fill="#000000" font-family="sans-serif" font-size="14" lengthAdjust="spacing" textLength="69.7129" x="531.4292" y="133.3467">PolyClient</text><line style="stroke:#181818;stroke-width:0.5;" x1="469.5" x2="630.9023" y1="144.5" y2="144.5"/><line style="stroke:#181818;stroke-width:0.5;" x1="469.5" x2="630.9023" y1="152.5" y2="152.5"/><ellipse cx="479.5" cy="166.1484" fill="#84BE84" rx="3" ry="3" style="stroke:#038048;stroke-width:1.0;"/><text fill="#000000" font-family="sans-serif" font-size="14" lengthAdjust="spacing" text-decoration="underline" textLength="137.4023" x="488.5" y="169.4951">main(String[]): void</text></g></a><!--class SparsePolyClient--><a href="SparsePolyClient.html" target="_top" title="SparsePolyClient.html" xlink:actuate="onRequest" xlink:href="SparsePolyClient.html" xlink:show="new" xlink:title="SparsePolyClient.html" xlink:type="simple"><g id="elem_SparsePolyClient"><rect codeLine="23" fill="#F1F1F1" height="64.2969" id="SparsePolyClient" rx="2.5" ry="2.5" style="stroke:#181818;stroke-width:0.5;" width="163.4023" x="299.5" y="345.5"/><ellipse cx="320.6532" cy="361.5" fill="#ADD1B2" rx="11" ry="11" style="stroke:#181818;stroke-width:1.0;"/><path d="M323.622,367.1406 Q323.0438,367.4375 322.4032,367.5781 Q321.7626,367.7344 321.0595,367.7344 Q318.5595,367.7344 317.2313,366.0938 Q315.9188,364.4375 315.9188,361.3125 Q315.9188,358.1875 317.2313,356.5313 Q318.5595,354.875 321.0595,354.875 Q321.7626,354.875 322.4032,355.0313 Q323.0595,355.1875 323.622,355.4844 L323.622,358.2031 Q322.997,357.625 322.4032,357.3594 Q321.8095,357.0781 321.1845,357.0781 Q319.8407,357.0781 319.1532,358.1563 Q318.4657,359.2188 318.4657,361.3125 Q318.4657,363.4063 319.1532,364.4844 Q319.8407,365.5469 321.1845,365.5469 Q321.8095,365.5469 322.4032,365.2813 Q322.997,365 323.622,364.4219 L323.622,367.1406 Z " fill="#000000"/><text fill="#000000" font-family="sans-serif" font-size="14" lengthAdjust="spacing" textLength="117.7285" x="336.0206" y="366.3467">SparsePolyClient</text><line style="stroke:#181818;stroke-width:0.5;" x1="300.5" x2="461.9023" y1="377.5" y2="377.5"/><line style="stroke:#181818;stroke-width:0.5;" x1="300.5" x2="461.9023" y1="385.5" y2="385.5"/><ellipse cx="310.5" cy="399.1484" fill="#84BE84" rx="3" ry="3" style="stroke:#038048;stroke-width:1.0;"/><text fill="#000000" font-family="sans-serif" font-size="14" lengthAdjust="spacing" text-decoration="underline" textLength="137.4023" x="319.5" y="402.4951">main(String[]): void</text></g></a><!--class SparsePoly--><a href="SparsePoly.html" target="_top" title="SparsePoly.html" xlink:actuate="onRequest" xlink:href="SparsePoly.html" xlink:show="new" xlink:title="SparsePoly.html" xlink:type="simple"><g id="elem_SparsePoly"><rect codeLine="27" fill="#F1F1F1" height="227.2656" id="SparsePoly" rx="2.5" ry="2.5" style="stroke:#181818;stroke-width:0.5;" width="271.7178" x="22" y="31"/><ellipse cx="115.0098" cy="47" fill="#ADD1B2" rx="11" ry="11" style="stroke:#181818;stroke-width:1.0;"/><path d="M117.9785,52.6406 Q117.4004,52.9375 116.7598,53.0781 Q116.1191,53.2344 115.416,53.2344 Q112.916,53.2344 111.5879,51.5938 Q110.2754,49.9375 110.2754,46.8125 Q110.2754,43.6875 111.5879,42.0313 Q112.916,40.375 115.416,40.375 Q116.1191,40.375 116.7598,40.5313 Q117.416,40.6875 117.9785,40.9844 L117.9785,43.7031 Q117.3535,43.125 116.7598,42.8594 Q116.166,42.5781 115.541,42.5781 Q114.1973,42.5781 113.5098,43.6563 Q112.8223,44.7188 112.8223,46.8125 Q112.8223,48.9063 113.5098,49.9844 Q114.1973,51.0469 115.541,51.0469 Q116.166,51.0469 116.7598,50.7813 Q117.3535,50.5 117.9785,49.9219 L117.9785,52.6406 Z " fill="#000000"/><text fill="#000000" font-family="sans-serif" font-size="14" lengthAdjust="spacing" textLength="77.1982" x="135.5098" y="51.8467">SparsePoly</text><line style="stroke:#181818;stroke-width:0.5;" x1="23" x2="292.7178" y1="63" y2="63"/><line style="stroke:#181818;stroke-width:0.5;" x1="23" x2="292.7178" y1="71" y2="71"/><ellipse cx="33" cy="84.6484" fill="#84BE84" rx="3" ry="3" style="stroke:#038048;stroke-width:1.0;"/><text fill="#000000" font-family="sans-serif" font-size="14" lengthAdjust="spacing" textLength="88.1221" x="42" y="87.9951">SparsePoly()</text><ellipse cx="33" cy="100.9453" fill="#84BE84" rx="3" ry="3" style="stroke:#038048;stroke-width:1.0;"/><text fill="#000000" font-family="sans-serif" font-size="14" lengthAdjust="spacing" textLength="133.5264" x="42" y="104.292">SparsePoly(int, int)</text><rect fill="#F24D5C" height="6" style="stroke:#C82930;stroke-width:1.0;" width="6" x="30" y="114.2422"/><text fill="#000000" font-family="sans-serif" font-size="14" lengthAdjust="spacing" textLength="172.6143" x="42" y="120.5889">SparsePoly(List&lt;Term&gt;)</text><rect fill="#F24D5C" height="6" style="stroke:#C82930;stroke-width:1.0;" width="6" x="30" y="130.5391"/><text fill="#000000" font-family="sans-serif" font-size="14" lengthAdjust="spacing" text-decoration="underline" textLength="245.7178" x="42" y="136.8857">findByDegree(List&lt;Term&gt;, int): int</text><ellipse cx="33" cy="149.8359" fill="#84BE84" rx="3" ry="3" style="stroke:#038048;stroke-width:1.0;"/><text fill="#000000" font-family="sans-serif" font-size="14" lengthAdjust="spacing" textLength="91.3281" x="42" y="153.1826">coeff(int): int</text><ellipse cx="33" cy="166.1328" fill="#84BE84" rx="3" ry="3" style="stroke:#038048;stroke-width:1.0;"/><text fill="#000000" font-family="sans-serif" font-size="14" lengthAdjust="spacing" textLength="87.7119" x="42" y="169.4795">degree(): int</text><rect fill="#F24D5C" height="6" style="stroke:#C82930;stroke-width:1.0;" width="6" x="30" y="179.4297"/><text fill="#000000" font-family="sans-serif" font-size="14" lengthAdjust="spacing" text-decoration="underline" textLength="242.5801" x="42" y="185.7764">addTerm(List&lt;Term&gt;, Term): void</text><ellipse cx="33" cy="198.7266" fill="#84BE84" rx="3" ry="3" style="stroke:#038048;stroke-width:1.0;"/><text fill="#000000" font-family="sans-serif" font-size="14" lengthAdjust="spacing" textLength="200.8398" x="42" y="202.0732">add(SparsePoly): SparsePoly</text><ellipse cx="33" cy="215.0234" fill="#84BE84" rx="3" ry="3" style="stroke:#038048;stroke-width:1.0;"/><text fill="#000000" font-family="sans-serif" font-size="14" lengthAdjust="spacing" textLength="200.8877" x="42" y="218.3701">mul(SparsePoly): SparsePoly</text><ellipse cx="33" cy="231.3203" fill="#84BE84" rx="3" ry="3" style="stroke:#038048;stroke-width:1.0;"/><text fill="#000000" font-family="sans-serif" font-size="14" lengthAdjust="spacing" textLength="199.541" x="42" y="234.667">sub(SparsePoly): SparsePoly</text><ellipse cx="33" cy="247.6172" fill="#84BE84" rx="3" ry="3" style="stroke:#038048;stroke-width:1.0;"/><text fill="#000000" font-family="sans-serif" font-size="14" lengthAdjust="spacing" textLength="139.8564" x="42" y="250.9639">minus(): SparsePoly</text></g></a><!--class SparsePoly.Term--><a href="SparsePoly.Term.html" target="_top" title="SparsePoly.Term.html" xlink:actuate="onRequest" xlink:href="SparsePoly.Term.html" xlink:show="new" xlink:title="SparsePoly.Term.html" xlink:type="simple"><g id="elem_SparsePoly.Term"><rect codeLine="41" fill="#F1F1F1" height="129.4844" id="SparsePoly.Term" rx="2.5" ry="2.5" style="stroke:#181818;stroke-width:0.5;" width="150.207" x="130" y="313"/><ellipse cx="145" cy="329" fill="#ADD1B2" rx="11" ry="11" style="stroke:#181818;stroke-width:1.0;"/><path d="M147.9688,334.6406 Q147.3906,334.9375 146.75,335.0781 Q146.1094,335.2344 145.4063,335.2344 Q142.9063,335.2344 141.5781,333.5938 Q140.2656,331.9375 140.2656,328.8125 Q140.2656,325.6875 141.5781,324.0313 Q142.9063,322.375 145.4063,322.375 Q146.1094,322.375 146.75,322.5313 Q147.4063,322.6875 147.9688,322.9844 L147.9688,325.7031 Q147.3438,325.125 146.75,324.8594 Q146.1563,324.5781 145.5313,324.5781 Q144.1875,324.5781 143.5,325.6563 Q142.8125,326.7188 142.8125,328.8125 Q142.8125,330.9063 143.5,331.9844 Q144.1875,333.0469 145.5313,333.0469 Q146.1563,333.0469 146.75,332.7813 Q147.3438,332.5 147.9688,331.9219 L147.9688,334.6406 Z " fill="#000000"/><text fill="#000000" font-family="sans-serif" font-size="14" lengthAdjust="spacing" textLength="118.207" x="159" y="333.8467">SparsePoly.Term</text><line style="stroke:#181818;stroke-width:0.5;" x1="131" x2="279.207" y1="345" y2="345"/><rect fill="none" height="6" style="stroke:#C82930;stroke-width:1.0;" width="6" x="138" y="355.6484"/><text fill="#000000" font-family="sans-serif" font-size="14" lengthAdjust="spacing" textLength="100.6045" x="150" y="361.9951">coefficient: int</text><rect fill="none" height="6" style="stroke:#C82930;stroke-width:1.0;" width="6" x="138" y="371.9453"/><text fill="#000000" font-family="sans-serif" font-size="14" lengthAdjust="spacing" textLength="76.7881" x="150" y="378.292">degree: int</text><line style="stroke:#181818;stroke-width:0.5;" x1="131" x2="279.207" y1="385.5938" y2="385.5938"/><ellipse cx="141" cy="399.2422" fill="#84BE84" rx="3" ry="3" style="stroke:#038048;stroke-width:1.0;"/><text fill="#000000" font-family="sans-serif" font-size="14" lengthAdjust="spacing" textLength="92.8867" x="150" y="402.5889">Term(int, int)</text><ellipse cx="141" cy="415.5391" fill="#84BE84" rx="3" ry="3" style="stroke:#038048;stroke-width:1.0;"/><text fill="#000000" font-family="sans-serif" font-size="14" lengthAdjust="spacing" textLength="111.5283" x="150" y="418.8857">coefficient(): int</text><ellipse cx="141" cy="431.8359" fill="#84BE84" rx="3" ry="3" style="stroke:#038048;stroke-width:1.0;"/><text fill="#000000" font-family="sans-serif" font-size="14" lengthAdjust="spacing" textLength="87.7119" x="150" y="435.1826">degree(): int</text></g></a><!--class Record--><a href="https://docs.oracle.com/en/java/javase/21/docs/api/java.base/java/lang/Record.html?is-external=true" target="_top" title="https://docs.oracle.com/en/java/javase/21/docs/api/java.base/java/lang/Record.html?is-external=true" xlink:actuate="onRequest" xlink:href="https://docs.oracle.com/en/java/javase/21/docs/api/java.base/java/lang/Record.html?is-external=true" xlink:show="new" xlink:title="https://docs.oracle.com/en/java/javase/21/docs/api/java.base/java/lang/Record.html?is-external=true" xlink:type="simple"><g id="elem_Record"><rect codeLine="52" fill="#F1F1F1" height="48" id="Record" rx="2.5" ry="2.5" style="stroke:#181818;stroke-width:0.5;" width="81.2461" x="656.5" y="120.5"/><ellipse cx="671.5" cy="136.5" fill="#A9DCDF" rx="11" ry="11" style="stroke:#181818;stroke-width:1.0;"/><path d="M671.6094,131.8438 L670.4531,136.9219 L672.7813,136.9219 L671.6094,131.8438 Z M670.125,129.6094 L673.1094,129.6094 L676.4688,142 L674.0156,142 L673.25,138.9375 L669.9688,138.9375 L669.2188,142 L666.7813,142 L670.125,129.6094 Z " fill="#000000"/><text fill="#000000" font-family="sans-serif" font-size="14" font-style="italic" lengthAdjust="spacing" textLength="49.2461" x="685.5" y="141.3467">Record</text><line style="stroke:#181818;stroke-width:0.5;" x1="657.5" x2="736.7461" y1="152.5" y2="152.5"/><line style="stroke:#181818;stroke-width:0.5;" x1="657.5" x2="736.7461" y1="160.5" y2="160.5"/></g></a><polygon fill="#181818" points="165.1962,312.8333,165.3868,302.9862,163.2543,308.2257,158.0148,306.0932,165.1962,312.8333" style="stroke:#181818;stroke-width:1.0;"/><path d="M152.6341,258.1617 C153.8404,270.7129 155.8607,283.2118 159,295 C160.5888,300.9661 160.3893,301.4278 162.8659,307.3042 " fill="none" style="stroke:#181818;stroke-width:1.0;"/><text fill="#000000" font-family="sans-serif" font-size="13" lengthAdjust="spacing" textLength="37.8765" x="161" y="290.0669">terms</text><text fill="#000000" font-family="sans-serif" font-size="13" lengthAdjust="spacing" textLength="6.5" x="158.1962" y="308.9002">*</text><polygon fill="none" points="692.8113,168.5362,682.9139,184.7239,694.606,187.4248,692.8113,168.5362" style="stroke:#181818;stroke-width:1.0;"/><path d="M688.7599,186.0743 C682.7375,212.1455 673.038,236.2649 644,258 C516.8836,353.1476 437.5372,251.8568 291,313 C287.3174,314.5366 283.6468,316.2629 280.0121,318.1364 " fill="none" style="stroke:#181818;stroke-width:1.0;"/><ellipse cx="198.0958" cy="265.9994" fill="#FFFFFF" rx="8" ry="8" style="stroke:#181818;stroke-width:1.0;"/><line style="stroke:#181818;stroke-width:1.0;" x1="199.9248" x2="196.2668" y1="273.7876" y2="258.2113"/><line style="stroke:#181818;stroke-width:1.0;" x1="190.3077" x2="205.8839" y1="267.8285" y2="264.1704"/><path d="M199.9248,273.7876 C201.3293,279.768 198.9316,270.1465 200,276 C202.1644,287.858 203.5253,300.6249 204.3586,312.9492 " fill="none" style="stroke:#181818;stroke-width:1.0;"/><text fill="#888888" font-family="sans-serif" font-size="10" lengthAdjust="spacing" textLength="3.1787" x="366.9106" y="461.2822">&#160;</text><text fill="#888888" font-family="sans-serif" font-size="10" lengthAdjust="spacing" textLength="183.0908" x="276.9546" y="472.9229">UMLDoclet 2.2.0, PlantUML 1.2024.6</text><!--SRC=[jLJFRzCm5BxlhtXCGahfuepUYCQGOCSXJGnE9OTNnyqCYHtPJaKr-hzZEzqIT-wM7SYXbj_tlVUzNpK0m9jMOTKWrBYLdG7TC8C2Jom2cjaxQr6XaGho_CHRMwI_iMB03Ua4RpWfEMcLh1P4dt-0-vxaFbgZrd0Zwoqib-uWTwQfYy9oOFIbLBBrcbFEXCc12xCi0dpkN9DPn6QvPyuXnD87xC2bP9LYB9bvZH3o6NYN28XbcRYG5dD723PTVHpKtUePJouwdHn2krZxljIkD_iczfTuA- -rGSFfpaP7Bf9RexYebeKLsKXU7XUvjJFMB90wDFqlmK0gBZ8V28ThC4AEBCE8SSsrkVZEL7CvYnUHhhaeFs-l-aKPw7tSr-xDyNqR1ErkEOL0ons73NnSnA4SInakJvTo4j4jwBI83yiQ8JmpNE9g2IViB1FVWH3jsndfiszWVFhpKSXa-eps5Ut2z-uNRf3KAAfHthZIHY4r-yg_CIfLQGk-CwRLUPQLaceYBQDcXCecOo9pOVoFPjdYlMTas79l8YjdzGmdbFNnVBi-SPsoFuOfWVL7epfM5ECaeuznde_-Psbw2QVlJbzc-X7bOAKQxMC_5fxd-m8l_gRfn40Jivk_BY2r0sKArbAwuwVuyVNwIjec6rYG1Ja_WnkRhx5MUBjXIdCfaja_]--></g></svg>