<svg xmlns="http://www.w3.org/2000/svg" xmlns:xlink="http://www.w3.org/1999/xlink" contentStyleType="text/css" height="253px" preserveAspectRatio="none" style="width:537px;height:253px;background:#FFFFFF;" version="1.1" viewBox="0 0 537 253" width="537px" zoomAndPan="magnify"><defs/><g><!--cluster it.unimi.di.prog2.e10--><g id="cluster_it.unimi.di.prog2.e10"><path d="M16.5,4 L184.4883,4 A3.75,3.75 0 0 1 186.9883,6.5 L193.9883,26.2969 L527.5,26.2969 A2.5,2.5 0 0 1 530,28.7969 L530,217.5 A2.5,2.5 0 0 1 527.5,220 L16.5,220 A2.5,2.5 0 0 1 14,217.5 L14,6.5 A2.5,2.5 0 0 1 16.5,4 " fill="none" style="stroke:#000000;stroke-width:1.5;"/><line style="stroke:#000000;stroke-width:1.5;" x1="14" x2="193.9883" y1="26.2969" y2="26.2969"/><text fill="#000000" font-family="sans-serif" font-size="14" font-weight="bold" lengthAdjust="spacing" textLength="166.9883" x="18" y="18.9951">it.unimi.di.prog2.e10</text></g><!--class RationalNumberClient--><a href="RationalNumberClient.html" target="_top" title="RationalNumberClient.html" xlink:actuate="onRequest" xlink:href="RationalNumberClient.html" xlink:show="new" xlink:title="RationalNumberClient.html" xlink:type="simple"><g id="elem_RationalNumberClient"><rect codeLine="6" fill="#F1F1F1" height="48" id="RationalNumberClient" rx="2.5" ry="2.5" style="stroke:#181818;stroke-width:0.5;" width="186.3623" x="79" y="31"/><ellipse cx="94" cy="47" fill="#ADD1B2" rx="11" ry="11" style="stroke:#181818;stroke-width:1.0;"/><path d="M96.9688,52.6406 Q96.3906,52.9375 95.75,53.0781 Q95.1094,53.2344 94.4063,53.2344 Q91.9063,53.2344 90.5781,51.5938 Q89.2656,49.9375 89.2656,46.8125 Q89.2656,43.6875 90.5781,42.0313 Q91.9063,40.375 94.4063,40.375 Q95.1094,40.375 95.75,40.5313 Q96.4063,40.6875 96.9688,40.9844 L96.9688,43.7031 Q96.3438,43.125 95.75,42.8594 Q95.1563,42.5781 94.5313,42.5781 Q93.1875,42.5781 92.5,43.6563 Q91.8125,44.7188 91.8125,46.8125 Q91.8125,48.9063 92.5,49.9844 Q93.1875,51.0469 94.5313,51.0469 Q95.1563,51.0469 95.75,50.7813 Q96.3438,50.5 96.9688,49.9219 L96.9688,52.6406 Z " fill="#000000"/><text fill="#000000" font-family="sans-serif" font-size="14" lengthAdjust="spacing" textLength="154.3623" x="108" y="51.8467">RationalNumberClient</text><line style="stroke:#181818;stroke-width:0.5;" x1="80" x2="264.3623" y1="63" y2="63"/><line style="stroke:#181818;stroke-width:0.5;" x1="80" x2="264.3623" y1="71" y2="71"/></g></a><!--class BoundedIntQueueClient--><a href="BoundedIntQueueClient.html" target="_top" title="BoundedIntQueueClient.html" xlink:actuate="onRequest" xlink:href="BoundedIntQueueClient.html" xlink:show="new" xlink:title="BoundedIntQueueClient.html" xlink:type="simple"><g id="elem_BoundedIntQueueClient"><rect codeLine="8" fill="#F1F1F1" height="48" id="BoundedIntQueueClient" rx="2.5" ry="2.5" style="stroke:#181818;stroke-width:0.5;" width="199.3164" x="283.5" y="31"/><ellipse cx="298.5" cy="47" fill="#ADD1B2" rx="11" ry="11" style="stroke:#181818;stroke-width:1.0;"/><path d="M301.4688,52.6406 Q300.8906,52.9375 300.25,53.0781 Q299.6094,53.2344 298.9063,53.2344 Q296.4063,53.2344 295.0781,51.5938 Q293.7656,49.9375 293.7656,46.8125 Q293.7656,43.6875 295.0781,42.0313 Q296.4063,40.375 298.9063,40.375 Q299.6094,40.375 300.25,40.5313 Q300.9063,40.6875 301.4688,40.9844 L301.4688,43.7031 Q300.8438,43.125 300.25,42.8594 Q299.6563,42.5781 299.0313,42.5781 Q297.6875,42.5781 297,43.6563 Q296.3125,44.7188 296.3125,46.8125 Q296.3125,48.9063 297,49.9844 Q297.6875,51.0469 299.0313,51.0469 Q299.6563,51.0469 300.25,50.7813 Q300.8438,50.5 301.4688,49.9219 L301.4688,52.6406 Z " fill="#000000"/><text fill="#000000" font-family="sans-serif" font-size="14" lengthAdjust="spacing" textLength="167.3164" x="312.5" y="51.8467">BoundedIntQueueClient</text><line style="stroke:#181818;stroke-width:0.5;" x1="284.5" x2="481.8164" y1="63" y2="63"/><line style="stroke:#181818;stroke-width:0.5;" x1="284.5" x2="481.8164" y1="71" y2="71"/></g></a><!--class RationalNumber--><a href="RationalNumber.html" target="_top" title="RationalNumber.html" xlink:actuate="onRequest" xlink:href="RationalNumber.html" xlink:show="new" xlink:title="RationalNumber.html" xlink:type="simple"><g id="elem_RationalNumber"><rect codeLine="10" fill="#F1F1F1" height="96.8906" id="RationalNumber" rx="2.5" ry="2.5" style="stroke:#181818;stroke-width:0.5;" width="300.1553" x="22" y="115"/><ellipse cx="110.9116" cy="131" fill="#ADD1B2" rx="11" ry="11" style="stroke:#181818;stroke-width:1.0;"/><path d="M113.8804,136.6406 Q113.3022,136.9375 112.6616,137.0781 Q112.021,137.2344 111.3179,137.2344 Q108.8179,137.2344 107.4897,135.5938 Q106.1772,133.9375 106.1772,130.8125 Q106.1772,127.6875 107.4897,126.0313 Q108.8179,124.375 111.3179,124.375 Q112.021,124.375 112.6616,124.5313 Q113.3179,124.6875 113.8804,124.9844 L113.8804,127.7031 Q113.2554,127.125 112.6616,126.8594 Q112.0679,126.5781 111.4429,126.5781 Q110.0991,126.5781 109.4116,127.6563 Q108.7241,128.7188 108.7241,130.8125 Q108.7241,132.9063 109.4116,133.9844 Q110.0991,135.0469 111.4429,135.0469 Q112.0679,135.0469 112.6616,134.7813 Q113.2554,134.5 113.8804,133.9219 L113.8804,136.6406 Z " fill="#000000"/><text fill="#000000" font-family="sans-serif" font-size="14" lengthAdjust="spacing" textLength="113.832" x="131.4116" y="135.8467">RationalNumber</text><line style="stroke:#181818;stroke-width:0.5;" x1="23" x2="321.1553" y1="147" y2="147"/><line style="stroke:#181818;stroke-width:0.5;" x1="23" x2="321.1553" y1="155" y2="155"/><ellipse cx="33" cy="168.6484" fill="#84BE84" rx="3" ry="3" style="stroke:#038048;stroke-width:1.0;"/><text fill="#000000" font-family="sans-serif" font-size="14" lengthAdjust="spacing" textLength="170.1602" x="42" y="171.9951">RationalNumber(int, int)</text><ellipse cx="33" cy="184.9453" fill="#84BE84" rx="3" ry="3" style="stroke:#038048;stroke-width:1.0;"/><text fill="#000000" font-family="sans-serif" font-size="14" lengthAdjust="spacing" textLength="274.1074" x="42" y="188.292">add(RationalNumber): RationalNumber</text><ellipse cx="33" cy="201.2422" fill="#84BE84" rx="3" ry="3" style="stroke:#038048;stroke-width:1.0;"/><text fill="#000000" font-family="sans-serif" font-size="14" lengthAdjust="spacing" textLength="274.1553" x="42" y="204.5889">mul(RationalNumber): RationalNumber</text></g></a><!--class BoundedIntQueue--><a href="BoundedIntQueue.html" target="_top" title="BoundedIntQueue.html" xlink:actuate="onRequest" xlink:href="BoundedIntQueue.html" xlink:show="new" xlink:title="BoundedIntQueue.html" xlink:type="simple"><g id="elem_BoundedIntQueue"><rect codeLine="16" fill="#F1F1F1" height="96.8906" id="BoundedIntQueue" rx="2.5" ry="2.5" style="stroke:#181818;stroke-width:0.5;" width="181.9619" x="340" y="115"/><ellipse cx="365.4291" cy="131" fill="#ADD1B2" rx="11" ry="11" style="stroke:#181818;stroke-width:1.0;"/><path d="M368.3979,136.6406 Q367.8197,136.9375 367.1791,137.0781 Q366.5385,137.2344 365.8354,137.2344 Q363.3354,137.2344 362.0072,135.5938 Q360.6947,133.9375 360.6947,130.8125 Q360.6947,127.6875 362.0072,126.0313 Q363.3354,124.375 365.8354,124.375 Q366.5385,124.375 367.1791,124.5313 Q367.8354,124.6875 368.3979,124.9844 L368.3979,127.7031 Q367.7729,127.125 367.1791,126.8594 Q366.5854,126.5781 365.9604,126.5781 Q364.6166,126.5781 363.9291,127.6563 Q363.2416,128.7188 363.2416,130.8125 Q363.2416,132.9063 363.9291,133.9844 Q364.6166,135.0469 365.9604,135.0469 Q366.5854,135.0469 367.1791,134.7813 Q367.7729,134.5 368.3979,133.9219 L368.3979,136.6406 Z " fill="#000000"/><text fill="#000000" font-family="sans-serif" font-size="14" lengthAdjust="spacing" textLength="126.7861" x="381.7467" y="135.8467">BoundedIntQueue</text><line style="stroke:#181818;stroke-width:0.5;" x1="341" x2="520.9619" y1="147" y2="147"/><line style="stroke:#181818;stroke-width:0.5;" x1="341" x2="520.9619" y1="155" y2="155"/><ellipse cx="351" cy="168.6484" fill="#84BE84" rx="3" ry="3" style="stroke:#038048;stroke-width:1.0;"/><text fill="#000000" font-family="sans-serif" font-size="14" lengthAdjust="spacing" textLength="155.9619" x="360" y="171.9951">BoundedIntQueue(int)</text><ellipse cx="351" cy="184.9453" fill="#84BE84" rx="3" ry="3" style="stroke:#038048;stroke-width:1.0;"/><text fill="#000000" font-family="sans-serif" font-size="14" lengthAdjust="spacing" textLength="129.3154" x="360" y="188.292">enqueue(int): void</text><ellipse cx="351" cy="201.2422" fill="#84BE84" rx="3" ry="3" style="stroke:#038048;stroke-width:1.0;"/><text fill="#000000" font-family="sans-serif" font-size="14" lengthAdjust="spacing" textLength="99.7021" x="360" y="204.5889">dequeue(): int</text></g></a><text fill="#888888" font-family="sans-serif" font-size="10" lengthAdjust="spacing" textLength="3.1787" x="258.9106" y="231.2822">&#160;</text><text fill="#888888" font-family="sans-serif" font-size="10" lengthAdjust="spacing" textLength="183.0908" x="168.9546" y="242.9229">UMLDoclet 2.2.0, PlantUML 1.2024.6</text><!--SRC=[ZL9DImCn4BttLum7OHTBg7lSeteHMb71K-rXt8nhC9cisQGWql_kj9LYTbjq3XFotflF103Wh0lOEWIBdpv5w1r5P9m80pt9dJeC67s0kfxiq0wRTsm9J5I9ZJDA6zK5trQABcVmjHTjhR7Oz_28qNX6UvVS2uLhQuWZB9V7OFKMdLsjXXckV69D-fRZGw94XnH7yHCvydAZ-ZzHqZtyiejSL1YEKn1NvYhKkiYLPJqec0UuPFyTiFbZ6-Czd9Xbe2h6Sn1_79WQrjxedDUqvuKKoR33pSutyWIotrVljySpFotcDxwnyf4gLQdP5EujSXGKpjSKUfcuABy1]--></g></svg>