<svg xmlns="http://www.w3.org/2000/svg" xmlns:xlink="http://www.w3.org/1999/xlink" contentStyleType="text/css" height="418px" preserveAspectRatio="none" style="width:586px;height:418px;background:#FFFFFF;" version="1.1" viewBox="0 0 586 418" width="586px" zoomAndPan="magnify"><defs/><g><!--cluster it.unimi.di.prog2.h13--><g id="cluster_it.unimi.di.prog2.h13"><path d="M16.5,4 L184.96,4 A3.75,3.75 0 0 1 187.46,6.5 L194.46,26.2969 L470.5,26.2969 A2.5,2.5 0 0 1 473,28.7969 L473,382.5 A2.5,2.5 0 0 1 470.5,385 L16.5,385 A2.5,2.5 0 0 1 14,382.5 L14,6.5 A2.5,2.5 0 0 1 16.5,4 " fill="none" style="stroke:#000000;stroke-width:1.5;"/><line style="stroke:#000000;stroke-width:1.5;" x1="14" x2="194.46" y1="26.2969" y2="26.2969"/><text fill="#000000" font-family="sans-serif" font-size="14" font-weight="bold" lengthAdjust="spacing" textLength="167.46" x="18" y="18.9951">it.unimi.di.prog2.h13</text></g><!--cluster java.lang--><g id="cluster_java.lang"><path d="M483.5,61 L556.8721,61 A3.75,3.75 0 0 1 559.3721,63.5 L566.3721,83.2969 L576.5,83.2969 A2.5,2.5 0 0 1 579,85.7969 L579,141.5 A2.5,2.5 0 0 1 576.5,144 L483.5,144 A2.5,2.5 0 0 1 481,141.5 L481,63.5 A2.5,2.5 0 0 1 483.5,61 " fill="none" style="stroke:#000000;stroke-width:1.5;"/><line style="stroke:#000000;stroke-width:1.5;" x1="481" x2="566.3721" y1="83.2969" y2="83.2969"/><text fill="#000000" font-family="sans-serif" font-size="14" font-weight="bold" lengthAdjust="spacing" textLength="72.3721" x="485" y="75.9951">java.lang</text></g><!--class PortafoglioAzionarioClient--><a href="PortafoglioAzionarioClient.html" target="_top" title="PortafoglioAzionarioClient.html" xlink:actuate="onRequest" xlink:href="PortafoglioAzionarioClient.html" xlink:show="new" xlink:title="PortafoglioAzionarioClient.html" xlink:type="simple"><g id="elem_PortafoglioAzionarioClient"><rect codeLine="6" fill="#F1F1F1" height="64.2969" id="PortafoglioAzionarioClient" rx="2.5" ry="2.5" style="stroke:#181818;stroke-width:0.5;" width="213.1318" x="251.5" y="80"/><ellipse cx="266.5" cy="96" fill="#ADD1B2" rx="11" ry="11" style="stroke:#181818;stroke-width:1.0;"/><path d="M269.4688,101.6406 Q268.8906,101.9375 268.25,102.0781 Q267.6094,102.2344 266.9063,102.2344 Q264.4063,102.2344 263.0781,100.5938 Q261.7656,98.9375 261.7656,95.8125 Q261.7656,92.6875 263.0781,91.0313 Q264.4063,89.375 266.9063,89.375 Q267.6094,89.375 268.25,89.5313 Q268.9063,89.6875 269.4688,89.9844 L269.4688,92.7031 Q268.8438,92.125 268.25,91.8594 Q267.6563,91.5781 267.0313,91.5781 Q265.6875,91.5781 265,92.6563 Q264.3125,93.7188 264.3125,95.8125 Q264.3125,97.9063 265,98.9844 Q265.6875,100.0469 267.0313,100.0469 Q267.6563,100.0469 268.25,99.7813 Q268.8438,99.5 269.4688,98.9219 L269.4688,101.6406 Z " fill="#000000"/><text fill="#000000" font-family="sans-serif" font-size="14" lengthAdjust="spacing" textLength="181.1318" x="280.5" y="100.8467">PortafoglioAzionarioClient</text><line style="stroke:#181818;stroke-width:0.5;" x1="252.5" x2="463.6318" y1="112" y2="112"/><line style="stroke:#181818;stroke-width:0.5;" x1="252.5" x2="463.6318" y1="120" y2="120"/><ellipse cx="262.5" cy="133.6484" fill="#84BE84" rx="3" ry="3" style="stroke:#038048;stroke-width:1.0;"/><text fill="#000000" font-family="sans-serif" font-size="14" lengthAdjust="spacing" text-decoration="underline" textLength="137.4023" x="271.5" y="136.9951">main(String[]): void</text></g></a><!--class PortafoglioAzionario--><a href="PortafoglioAzionario.html" target="_top" title="PortafoglioAzionario.html" xlink:actuate="onRequest" xlink:href="PortafoglioAzionario.html" xlink:show="new" xlink:title="PortafoglioAzionario.html" xlink:type="simple"><g id="elem_PortafoglioAzionario"><rect codeLine="10" fill="#F1F1F1" height="162.0781" id="PortafoglioAzionario" rx="2.5" ry="2.5" style="stroke:#181818;stroke-width:0.5;" width="210.502" x="22.5" y="31"/><ellipse cx="54.5552" cy="47" fill="#ADD1B2" rx="11" ry="11" style="stroke:#181818;stroke-width:1.0;"/><path d="M57.5239,52.6406 Q56.9458,52.9375 56.3052,53.0781 Q55.6646,53.2344 54.9614,53.2344 Q52.4614,53.2344 51.1333,51.5938 Q49.8208,49.9375 49.8208,46.8125 Q49.8208,43.6875 51.1333,42.0313 Q52.4614,40.375 54.9614,40.375 Q55.6646,40.375 56.3052,40.5313 Q56.9614,40.6875 57.5239,40.9844 L57.5239,43.7031 Q56.8989,43.125 56.3052,42.8594 Q55.7114,42.5781 55.0864,42.5781 Q53.7427,42.5781 53.0552,43.6563 Q52.3677,44.7188 52.3677,46.8125 Q52.3677,48.9063 53.0552,49.9844 Q53.7427,51.0469 55.0864,51.0469 Q55.7114,51.0469 56.3052,50.7813 Q56.8989,50.5 57.5239,49.9219 L57.5239,52.6406 Z " fill="#000000"/><text fill="#000000" font-family="sans-serif" font-size="14" lengthAdjust="spacing" textLength="140.6016" x="72.3452" y="51.8467">PortafoglioAzionario</text><line style="stroke:#181818;stroke-width:0.5;" x1="23.5" x2="232.002" y1="63" y2="63"/><rect fill="none" height="6" style="stroke:#C82930;stroke-width:1.0;" width="6" x="30.5" y="73.6484"/><text fill="#000000" font-family="sans-serif" font-size="14" lengthAdjust="spacing" textLength="166.1201" x="42.5" y="79.9951">quantit&#224;: List&lt;Integer&gt;</text><line style="stroke:#181818;stroke-width:0.5;" x1="23.5" x2="232.002" y1="87.2969" y2="87.2969"/><ellipse cx="33.5" cy="100.9453" fill="#84BE84" rx="3" ry="3" style="stroke:#038048;stroke-width:1.0;"/><text fill="#000000" font-family="sans-serif" font-size="14" lengthAdjust="spacing" textLength="184.502" x="42.5" y="104.292">aggiungi(Azione, int): void</text><rect fill="#F24D5C" height="6" style="stroke:#C82930;stroke-width:1.0;" width="6" x="30.5" y="114.2422"/><text fill="#000000" font-family="sans-serif" font-size="14" lengthAdjust="spacing" textLength="125.9932" x="42.5" y="120.5889">azione(String): int</text><ellipse cx="33.5" cy="133.5391" fill="#84BE84" rx="3" ry="3" style="stroke:#038048;stroke-width:1.0;"/><text fill="#000000" font-family="sans-serif" font-size="14" lengthAdjust="spacing" textLength="176.6338" x="42.5" y="136.8857">rimuovi(Azione, int): void</text><ellipse cx="33.5" cy="149.8359" fill="#84BE84" rx="3" ry="3" style="stroke:#038048;stroke-width:1.0;"/><text fill="#000000" font-family="sans-serif" font-size="14" lengthAdjust="spacing" textLength="171.5479" x="42.5" y="153.1826">rimuovi(String, int): void</text><ellipse cx="33.5" cy="166.1328" fill="#84BE84" rx="3" ry="3" style="stroke:#038048;stroke-width:1.0;"/><text fill="#000000" font-family="sans-serif" font-size="14" lengthAdjust="spacing" textLength="129.4385" x="42.5" y="169.4795">quante(String): int</text><ellipse cx="33.5" cy="182.4297" fill="#84BE84" rx="3" ry="3" style="stroke:#038048;stroke-width:1.0;"/><text fill="#000000" font-family="sans-serif" font-size="14" lengthAdjust="spacing" textLength="82.0313" x="42.5" y="185.7764">valore(): int</text></g></a><!--class PortafoglioAzionario.Azione--><a href="PortafoglioAzionario.Azione.html" target="_top" title="PortafoglioAzionario.Azione.html" xlink:actuate="onRequest" xlink:href="PortafoglioAzionario.Azione.html" xlink:show="new" xlink:title="PortafoglioAzionario.Azione.html" xlink:type="simple"><g id="elem_PortafoglioAzionario.Azione"><rect codeLine="20" fill="#F1F1F1" height="129.4844" id="PortafoglioAzionario.Azione" rx="2.5" ry="2.5" style="stroke:#181818;stroke-width:0.5;" width="223.9189" x="68" y="248"/><ellipse cx="83" cy="264" fill="#ADD1B2" rx="11" ry="11" style="stroke:#181818;stroke-width:1.0;"/><path d="M85.9688,269.6406 Q85.3906,269.9375 84.75,270.0781 Q84.1094,270.2344 83.4063,270.2344 Q80.9063,270.2344 79.5781,268.5938 Q78.2656,266.9375 78.2656,263.8125 Q78.2656,260.6875 79.5781,259.0313 Q80.9063,257.375 83.4063,257.375 Q84.1094,257.375 84.75,257.5313 Q85.4063,257.6875 85.9688,257.9844 L85.9688,260.7031 Q85.3438,260.125 84.75,259.8594 Q84.1563,259.5781 83.5313,259.5781 Q82.1875,259.5781 81.5,260.6563 Q80.8125,261.7188 80.8125,263.8125 Q80.8125,265.9063 81.5,266.9844 Q82.1875,268.0469 83.5313,268.0469 Q84.1563,268.0469 84.75,267.7813 Q85.3438,267.5 85.9688,266.9219 L85.9688,269.6406 Z " fill="#000000"/><text fill="#000000" font-family="sans-serif" font-size="14" lengthAdjust="spacing" textLength="191.9189" x="97" y="268.8467">PortafoglioAzionario.Azione</text><line style="stroke:#181818;stroke-width:0.5;" x1="69" x2="290.9189" y1="280" y2="280"/><rect fill="none" height="6" style="stroke:#C82930;stroke-width:1.0;" width="6" x="76" y="290.6484"/><text fill="#000000" font-family="sans-serif" font-size="14" lengthAdjust="spacing" textLength="101.0762" x="88" y="296.9951">societ&#224;: String</text><rect fill="none" height="6" style="stroke:#C82930;stroke-width:1.0;" width="6" x="76" y="306.9453"/><text fill="#000000" font-family="sans-serif" font-size="14" lengthAdjust="spacing" textLength="73.9375" x="88" y="313.292">prezzo: int</text><line style="stroke:#181818;stroke-width:0.5;" x1="69" x2="290.9189" y1="320.5938" y2="320.5938"/><ellipse cx="79" cy="334.2422" fill="#84BE84" rx="3" ry="3" style="stroke:#038048;stroke-width:1.0;"/><text fill="#000000" font-family="sans-serif" font-size="14" lengthAdjust="spacing" textLength="126.7246" x="88" y="337.5889">Azione(String, int)</text><ellipse cx="79" cy="350.5391" fill="#84BE84" rx="3" ry="3" style="stroke:#038048;stroke-width:1.0;"/><text fill="#000000" font-family="sans-serif" font-size="14" lengthAdjust="spacing" textLength="112" x="88" y="353.8857">societ&#224;(): String</text><ellipse cx="79" cy="366.8359" fill="#84BE84" rx="3" ry="3" style="stroke:#038048;stroke-width:1.0;"/><text fill="#000000" font-family="sans-serif" font-size="14" lengthAdjust="spacing" textLength="84.8613" x="88" y="370.1826">prezzo(): int</text></g></a><!--class Record--><a href="https://docs.oracle.com/en/java/javase/21/docs/api/java.base/java/lang/Record.html?is-external=true" target="_top" title="https://docs.oracle.com/en/java/javase/21/docs/api/java.base/java/lang/Record.html?is-external=true" xlink:actuate="onRequest" xlink:href="https://docs.oracle.com/en/java/javase/21/docs/api/java.base/java/lang/Record.html?is-external=true" xlink:show="new" xlink:title="https://docs.oracle.com/en/java/javase/21/docs/api/java.base/java/lang/Record.html?is-external=true" xlink:type="simple"><g id="elem_Record"><rect codeLine="31" fill="#F1F1F1" height="48" id="Record" rx="2.5" ry="2.5" style="stroke:#181818;stroke-width:0.5;" width="81.2461" x="489.5" y="88"/><ellipse cx="504.5" cy="104" fill="#A9DCDF" rx="11" ry="11" style="stroke:#181818;stroke-width:1.0;"/><path d="M504.6094,99.3438 L503.4531,104.4219 L505.7813,104.4219 L504.6094,99.3438 Z M503.125,97.1094 L506.1094,97.1094 L509.4688,109.5 L507.0156,109.5 L506.25,106.4375 L502.9688,106.4375 L502.2188,109.5 L499.7813,109.5 L503.125,97.1094 Z " fill="#000000"/><text fill="#000000" font-family="sans-serif" font-size="14" font-style="italic" lengthAdjust="spacing" textLength="49.2461" x="518.5" y="108.8467">Record</text><line style="stroke:#181818;stroke-width:0.5;" x1="490.5" x2="569.7461" y1="120" y2="120"/><line style="stroke:#181818;stroke-width:0.5;" x1="490.5" x2="569.7461" y1="128" y2="128"/></g></a><polygon fill="#181818" points="135.6853,247.6315,135.5589,237.7835,133.5961,243.0889,128.2907,241.1262,135.6853,247.6315" style="stroke:#181818;stroke-width:1.0;"/><path d="M122.8586,193.1563 C123.7185,205.657 125.5867,218.2998 129,230 C130.7295,235.9287 130.5175,236.3949 133.1783,242.1804 " fill="none" style="stroke:#181818;stroke-width:1.0;"/><text fill="#000000" font-family="sans-serif" font-size="13" lengthAdjust="spacing" textLength="42.5928" x="131" y="225.0669">azione</text><text fill="#000000" font-family="sans-serif" font-size="13" lengthAdjust="spacing" textLength="6.5" x="128.6853" y="243.6984">*</text><polygon fill="none" points="519.5066,136.1186,505.9626,149.4061,516.6439,154.875,519.5066,136.1186" style="stroke:#181818;stroke-width:1.0;"/><path d="M511.3033,152.1406 C502.2542,169.8143 495.873,177.6549 477,193 C423.3727,236.6027 351.6614,265.822 292.1392,284.3353 " fill="none" style="stroke:#181818;stroke-width:1.0;"/><ellipse cx="172.1682" cy="200.6021" fill="#FFFFFF" rx="8" ry="8" style="stroke:#181818;stroke-width:1.0;"/><line style="stroke:#181818;stroke-width:1.0;" x1="174.8648" x2="169.4716" y1="208.1339" y2="193.0703"/><line style="stroke:#181818;stroke-width:1.0;" x1="164.6364" x2="179.7" y1="203.2987" y2="197.9055"/><path d="M174.8648,208.1339 C177.0026,214.1049 173.492,205.0558 175,211 C177.9856,222.7685 179.7186,235.5543 180.6591,247.9377 " fill="none" style="stroke:#181818;stroke-width:1.0;"/><text fill="#888888" font-family="sans-serif" font-size="10" lengthAdjust="spacing" textLength="3.1787" x="283.4106" y="396.2822">&#160;</text><text fill="#888888" font-family="sans-serif" font-size="10" lengthAdjust="spacing" textLength="183.0908" x="193.4546" y="407.9229">UMLDoclet 2.2.0, PlantUML 1.2024.6</text><!--SRC=[dLJ1RjD04BttAuPAI2cfrpJSLgMeWWjIaIeGf-33rDaw0_QEsHrRa99_wR_mOwpNQHHNSMdhWotFl7tptjkr0G1Ur0wB2g74tzm8-Ce8MZm87V0cl9iQ7GexqFeWLclCVs1XW4GrbYfI2rArusAcbYTluAO7TLTUelTmoKxmcekI-7n5RD4Hlo_9M87vVBofbbALMHRuOEUwyO92-Hgc5PATV157jfXdHnfQfiKMkdwCY97n-mSdFnkqGlBtLiC5UJdzQCKKnfqDK5Ci2cfiGPD8Puw1hDmN5-amzZS60YBWXaoEgeRR_n9jSJtJE2xgVsXWYoKxCxdNUbIIgXSv5cZV7SdLSqucnjfB6tPhPrOhtgFsV3U_tlKGSCVR6Th3FEsPH-okXoVzExQeIhJ5ZdYyyk8mbqqidqtERX4IM8hKNgVfWdElE21AetAkKcFJZYRUl4bd9n6HOasnfAwwQaHqWzAUBsRsZdnYVebn5iktuXgJPRiYztw6MkyzyKbo1eUl3f-oPhDx6leJ6qTkyz1wu_lqJv8yW_N91gRF7vE7dufnSCtSFRxPhvykFd3O7O6PcgdNnt0P74cemilME1_MJOx-0G00]--></g></svg>