<svg xmlns="http://www.w3.org/2000/svg" xmlns:xlink="http://www.w3.org/1999/xlink" contentStyleType="text/css" height="455px" preserveAspectRatio="none" style="width:1038px;height:455px;background:#FFFFFF;" version="1.1" viewBox="0 0 1038 455" width="1038px" zoomAndPan="magnify"><defs/><g><!--cluster it.unimi.di.prog2.h14--><g id="cluster_it.unimi.di.prog2.h14"><path d="M48.5,160 L216.96,160 A3.75,3.75 0 0 1 219.46,162.5 L226.46,182.2969 L1028.5,182.2969 A2.5,2.5 0 0 1 1031,184.7969 L1031,419.5 A2.5,2.5 0 0 1 1028.5,422 L48.5,422 A2.5,2.5 0 0 1 46,419.5 L46,162.5 A2.5,2.5 0 0 1 48.5,160 " fill="none" style="stroke:#000000;stroke-width:1.5;"/><line style="stroke:#000000;stroke-width:1.5;" x1="46" x2="226.46" y1="182.2969" y2="182.2969"/><text fill="#000000" font-family="sans-serif" font-size="14" font-weight="bold" lengthAdjust="spacing" textLength="167.46" x="50" y="174.9951">it.unimi.di.prog2.h14</text></g><!--cluster java.lang--><g id="cluster_java.lang"><path d="M16.5,12 L89.8721,12 A3.75,3.75 0 0 1 92.3721,14.5 L99.3721,34.2969 L315.5,34.2969 A2.5,2.5 0 0 1 318,36.7969 L318,141.5 A2.5,2.5 0 0 1 315.5,144 L16.5,144 A2.5,2.5 0 0 1 14,141.5 L14,14.5 A2.5,2.5 0 0 1 16.5,12 " fill="none" style="stroke:#000000;stroke-width:1.5;"/><line style="stroke:#000000;stroke-width:1.5;" x1="14" x2="99.3721" y1="34.2969" y2="34.2969"/><text fill="#000000" font-family="sans-serif" font-size="14" font-weight="bold" lengthAdjust="spacing" textLength="72.3721" x="18" y="26.9951">java.lang</text></g><!--cluster java.util--><g id="cluster_java.util"><path d="M434.5,4 L499.8945,4 A3.75,3.75 0 0 1 502.3945,6.5 L509.3945,26.2969 L809.5,26.2969 A2.5,2.5 0 0 1 812,28.7969 L812,149.5 A2.5,2.5 0 0 1 809.5,152 L434.5,152 A2.5,2.5 0 0 1 432,149.5 L432,6.5 A2.5,2.5 0 0 1 434.5,4 " fill="none" style="stroke:#000000;stroke-width:1.5;"/><line style="stroke:#000000;stroke-width:1.5;" x1="432" x2="509.3945" y1="26.2969" y2="26.2969"/><text fill="#000000" font-family="sans-serif" font-size="14" font-weight="bold" lengthAdjust="spacing" textLength="64.3945" x="436" y="18.9951">java.util</text></g><!--class IntSetsClient--><a href="IntSetsClient.html" target="_top" title="IntSetsClient.html" xlink:actuate="onRequest" xlink:href="IntSetsClient.html" xlink:show="new" xlink:title="IntSetsClient.html" xlink:type="simple"><g id="elem_IntSetsClient"><rect codeLine="6" fill="#F1F1F1" height="64.2969" id="IntSetsClient" rx="2.5" ry="2.5" style="stroke:#181818;stroke-width:0.5;" width="163.4023" x="859.5" y="268.5"/><ellipse cx="893.4439" cy="284.5" fill="#ADD1B2" rx="11" ry="11" style="stroke:#181818;stroke-width:1.0;"/><path d="M896.4127,290.1406 Q895.8346,290.4375 895.1939,290.5781 Q894.5533,290.7344 893.8502,290.7344 Q891.3502,290.7344 890.0221,289.0938 Q888.7096,287.4375 888.7096,284.3125 Q888.7096,281.1875 890.0221,279.5313 Q891.3502,277.875 893.8502,277.875 Q894.5533,277.875 895.1939,278.0313 Q895.8502,278.1875 896.4127,278.4844 L896.4127,281.2031 Q895.7877,280.625 895.1939,280.3594 Q894.6002,280.0781 893.9752,280.0781 Q892.6314,280.0781 891.9439,281.1563 Q891.2564,282.2188 891.2564,284.3125 Q891.2564,286.4063 891.9439,287.4844 Q892.6314,288.5469 893.9752,288.5469 Q894.6002,288.5469 895.1939,288.2813 Q895.7877,288 896.4127,287.4219 L896.4127,290.1406 Z " fill="#000000"/><text fill="#000000" font-family="sans-serif" font-size="14" lengthAdjust="spacing" textLength="89.3047" x="911.6537" y="289.3467">IntSetsClient</text><line style="stroke:#181818;stroke-width:0.5;" x1="860.5" x2="1021.9023" y1="300.5" y2="300.5"/><line style="stroke:#181818;stroke-width:0.5;" x1="860.5" x2="1021.9023" y1="308.5" y2="308.5"/><ellipse cx="870.5" cy="322.1484" fill="#84BE84" rx="3" ry="3" style="stroke:#038048;stroke-width:1.0;"/><text fill="#000000" font-family="sans-serif" font-size="14" lengthAdjust="spacing" text-decoration="underline" textLength="137.4023" x="879.5" y="325.4951">main(String[]): void</text></g></a><!--class IntSet--><a href="IntSet.html" target="_top" title="IntSet.html" xlink:actuate="onRequest" xlink:href="IntSet.html" xlink:show="new" xlink:title="IntSet.html" xlink:type="simple"><g id="elem_IntSet"><rect codeLine="10" fill="#F1F1F1" height="227.2656" id="IntSet" rx="2.5" ry="2.5" style="stroke:#181818;stroke-width:0.5;" width="224.4268" x="54" y="187"/><ellipse cx="141.2231" cy="203" fill="#ADD1B2" rx="11" ry="11" style="stroke:#181818;stroke-width:1.0;"/><path d="M144.1919,208.6406 Q143.6138,208.9375 142.9731,209.0781 Q142.3325,209.2344 141.6294,209.2344 Q139.1294,209.2344 137.8013,207.5938 Q136.4888,205.9375 136.4888,202.8125 Q136.4888,199.6875 137.8013,198.0313 Q139.1294,196.375 141.6294,196.375 Q142.3325,196.375 142.9731,196.5313 Q143.6294,196.6875 144.1919,196.9844 L144.1919,199.7031 Q143.5669,199.125 142.9731,198.8594 Q142.3794,198.5781 141.7544,198.5781 Q140.4106,198.5781 139.7231,199.6563 Q139.0356,200.7188 139.0356,202.8125 Q139.0356,204.9063 139.7231,205.9844 Q140.4106,207.0469 141.7544,207.0469 Q142.3794,207.0469 142.9731,206.7813 Q143.5669,206.5 144.1919,205.9219 L144.1919,208.6406 Z " fill="#000000"/><text fill="#000000" font-family="sans-serif" font-size="14" lengthAdjust="spacing" textLength="41.4805" x="161.7231" y="207.8467">IntSet</text><line style="stroke:#181818;stroke-width:0.5;" x1="55" x2="277.4268" y1="219" y2="219"/><rect fill="none" height="6" style="stroke:#C82930;stroke-width:1.0;" width="6" x="62" y="229.6484"/><text fill="#000000" font-family="sans-serif" font-size="14" lengthAdjust="spacing" textLength="127.2578" x="74" y="235.9951">els: List&lt;Integer&gt;</text><line style="stroke:#181818;stroke-width:0.5;" x1="55" x2="277.4268" y1="243.2969" y2="243.2969"/><ellipse cx="65" cy="256.9453" fill="#84BE84" rx="3" ry="3" style="stroke:#038048;stroke-width:1.0;"/><text fill="#000000" font-family="sans-serif" font-size="14" lengthAdjust="spacing" textLength="52.4043" x="74" y="260.292">IntSet()</text><ellipse cx="65" cy="273.2422" fill="#84BE84" rx="3" ry="3" style="stroke:#038048;stroke-width:1.0;"/><text fill="#000000" font-family="sans-serif" font-size="14" lengthAdjust="spacing" textLength="93.8848" x="74" y="276.5889">IntSet(IntSet)</text><rect fill="#F24D5C" height="6" style="stroke:#C82930;stroke-width:1.0;" width="6" x="62" y="286.5391"/><text fill="#000000" font-family="sans-serif" font-size="14" lengthAdjust="spacing" textLength="118.3711" x="74" y="292.8857">getIndex(int): int</text><ellipse cx="65" cy="305.8359" fill="#84BE84" rx="3" ry="3" style="stroke:#038048;stroke-width:1.0;"/><text fill="#000000" font-family="sans-serif" font-size="14" lengthAdjust="spacing" textLength="107.8848" x="74" y="309.1826">insert(int): void</text><ellipse cx="65" cy="322.1328" fill="#84BE84" rx="3" ry="3" style="stroke:#038048;stroke-width:1.0;"/><text fill="#000000" font-family="sans-serif" font-size="14" lengthAdjust="spacing" textLength="121.4404" x="74" y="325.4795">remove(int): void</text><ellipse cx="65" cy="338.4297" fill="#84BE84" rx="3" ry="3" style="stroke:#038048;stroke-width:1.0;"/><text fill="#000000" font-family="sans-serif" font-size="14" lengthAdjust="spacing" textLength="118.501" x="74" y="341.7764">isIn(int): boolean</text><ellipse cx="65" cy="354.7266" fill="#84BE84" rx="3" ry="3" style="stroke:#038048;stroke-width:1.0;"/><text fill="#000000" font-family="sans-serif" font-size="14" lengthAdjust="spacing" textLength="65.4883" x="74" y="358.0732">size(): int</text><ellipse cx="65" cy="371.0234" fill="#84BE84" rx="3" ry="3" style="stroke:#038048;stroke-width:1.0;"/><text fill="#000000" font-family="sans-serif" font-size="14" lengthAdjust="spacing" textLength="87.9512" x="74" y="374.3701">choose(): int</text><ellipse cx="65" cy="387.3203" fill="#84BE84" rx="3" ry="3" style="stroke:#038048;stroke-width:1.0;"/><text fill="#000000" font-family="sans-serif" font-size="14" lengthAdjust="spacing" textLength="198.4268" x="74" y="390.667">iterator(): Iterator&lt;Integer&gt;</text><rect fill="#F24D5C" height="6" style="stroke:#C82930;stroke-width:1.0;" width="6" x="62" y="400.6172"/><text fill="#000000" font-family="sans-serif" font-size="14" lengthAdjust="spacing" textLength="118.4463" x="74" y="406.9639">repOk(): boolean</text></g></a><!--class IntGenerator--><a href="IntGenerator.html" target="_top" title="IntGenerator.html" xlink:actuate="onRequest" xlink:href="IntGenerator.html" xlink:show="new" xlink:title="IntGenerator.html" xlink:type="simple"><g id="elem_IntGenerator"><rect codeLine="24" fill="#F1F1F1" height="129.4844" id="IntGenerator" rx="2.5" ry="2.5" style="stroke:#181818;stroke-width:0.5;" width="224.8027" x="616.5" y="236"/><ellipse cx="679.8589" cy="252" fill="#ADD1B2" rx="11" ry="11" style="stroke:#181818;stroke-width:1.0;"/><path d="M682.8276,257.6406 Q682.2495,257.9375 681.6089,258.0781 Q680.9683,258.2344 680.2651,258.2344 Q677.7651,258.2344 676.437,256.5938 Q675.1245,254.9375 675.1245,251.8125 Q675.1245,248.6875 676.437,247.0313 Q677.7651,245.375 680.2651,245.375 Q680.9683,245.375 681.6089,245.5313 Q682.2651,245.6875 682.8276,245.9844 L682.8276,248.7031 Q682.2026,248.125 681.6089,247.8594 Q681.0151,247.5781 680.3901,247.5781 Q679.0464,247.5781 678.3589,248.6563 Q677.6714,249.7188 677.6714,251.8125 Q677.6714,253.9063 678.3589,254.9844 Q679.0464,256.0469 680.3901,256.0469 Q681.0151,256.0469 681.6089,255.7813 Q682.2026,255.5 682.8276,254.9219 L682.8276,257.6406 Z " fill="#000000"/><text fill="#000000" font-family="sans-serif" font-size="14" lengthAdjust="spacing" textLength="89.585" x="700.3589" y="256.8467">IntGenerator</text><line style="stroke:#181818;stroke-width:0.5;" x1="617.5" x2="840.3027" y1="268" y2="268"/><rect fill="none" height="6" style="stroke:#C82930;stroke-width:1.0;" width="6" x="624.5" y="278.6484"/><text fill="#000000" font-family="sans-serif" font-size="14" lengthAdjust="spacing" textLength="127.2578" x="636.5" y="284.9951">els: List&lt;Integer&gt;</text><rect fill="none" height="6" style="stroke:#C82930;stroke-width:1.0;" width="6" x="624.5" y="294.9453"/><text fill="#000000" font-family="sans-serif" font-size="14" lengthAdjust="spacing" textLength="48.4805" x="636.5" y="301.292">idx: int</text><line style="stroke:#181818;stroke-width:0.5;" x1="617.5" x2="840.3027" y1="308.5938" y2="308.5938"/><ellipse cx="627.5" cy="322.2422" fill="#84BE84" rx="3" ry="3" style="stroke:#038048;stroke-width:1.0;"/><text fill="#000000" font-family="sans-serif" font-size="14" lengthAdjust="spacing" textLength="198.8027" x="636.5" y="325.5889">IntGenerator(List&lt;Integer&gt;)</text><ellipse cx="627.5" cy="338.5391" fill="#84BE84" rx="3" ry="3" style="stroke:#038048;stroke-width:1.0;"/><text fill="#000000" font-family="sans-serif" font-size="14" lengthAdjust="spacing" textLength="133.6699" x="636.5" y="341.8857">hasNext(): boolean</text><ellipse cx="627.5" cy="354.8359" fill="#84BE84" rx="3" ry="3" style="stroke:#038048;stroke-width:1.0;"/><text fill="#000000" font-family="sans-serif" font-size="14" lengthAdjust="spacing" textLength="101.7119" x="636.5" y="358.1826">next(): Integer</text></g></a><!--class Primes--><a href="Primes.html" target="_top" title="Primes.html" xlink:actuate="onRequest" xlink:href="Primes.html" xlink:show="new" xlink:title="Primes.html" xlink:type="simple"><g id="elem_Primes"><rect codeLine="32" fill="#F1F1F1" height="129.4844" id="Primes" rx="2.5" ry="2.5" style="stroke:#181818;stroke-width:0.5;" width="301.9736" x="296" y="236"/><ellipse cx="418.9204" cy="252" fill="#ADD1B2" rx="11" ry="11" style="stroke:#181818;stroke-width:1.0;"/><path d="M421.8892,257.6406 Q421.311,257.9375 420.6704,258.0781 Q420.0298,258.2344 419.3267,258.2344 Q416.8267,258.2344 415.4985,256.5938 Q414.186,254.9375 414.186,251.8125 Q414.186,248.6875 415.4985,247.0313 Q416.8267,245.375 419.3267,245.375 Q420.0298,245.375 420.6704,245.5313 Q421.3267,245.6875 421.8892,245.9844 L421.8892,248.7031 Q421.2642,248.125 420.6704,247.8594 Q420.0767,247.5781 419.4517,247.5781 Q418.1079,247.5781 417.4204,248.6563 Q416.7329,249.7188 416.7329,251.8125 Q416.7329,253.9063 417.4204,254.9844 Q418.1079,256.0469 419.4517,256.0469 Q420.0767,256.0469 420.6704,255.7813 Q421.2642,255.5 421.8892,254.9219 L421.8892,257.6406 Z " fill="#000000"/><text fill="#000000" font-family="sans-serif" font-size="14" lengthAdjust="spacing" textLength="47.6328" x="439.4204" y="256.8467">Primes</text><line style="stroke:#181818;stroke-width:0.5;" x1="297" x2="596.9736" y1="268" y2="268"/><rect fill="none" height="6" style="stroke:#C82930;stroke-width:1.0;" width="6" x="304" y="278.6484"/><text fill="#000000" font-family="sans-serif" font-size="14" lengthAdjust="spacing" textLength="96.9131" x="316" y="284.9951">candidate: int</text><rect fill="none" height="6" style="stroke:#C82930;stroke-width:1.0;" width="6" x="304" y="294.9453"/><text fill="#000000" font-family="sans-serif" font-size="14" lengthAdjust="spacing" textLength="195.2207" x="316" y="301.292">foundPrimes: List&lt;Integer&gt;</text><line style="stroke:#181818;stroke-width:0.5;" x1="297" x2="596.9736" y1="308.5938" y2="308.5938"/><ellipse cx="307" cy="322.2422" fill="#84BE84" rx="3" ry="3" style="stroke:#038048;stroke-width:1.0;"/><text fill="#000000" font-family="sans-serif" font-size="14" lengthAdjust="spacing" textLength="133.6699" x="316" y="325.5889">hasNext(): boolean</text><rect fill="#F24D5C" height="6" style="stroke:#C82930;stroke-width:1.0;" width="6" x="304" y="335.5391"/><text fill="#000000" font-family="sans-serif" font-size="14" lengthAdjust="spacing" textLength="275.9736" x="316" y="341.8857">isDivisibleByAFoundPrime(int): boolean</text><ellipse cx="307" cy="354.8359" fill="#84BE84" rx="3" ry="3" style="stroke:#038048;stroke-width:1.0;"/><text fill="#000000" font-family="sans-serif" font-size="14" lengthAdjust="spacing" textLength="101.7119" x="316" y="358.1826">next(): Integer</text></g></a><!--class Iterable--><a href="https://docs.oracle.com/en/java/javase/21/docs/api/java.base/java/lang/Iterable.html?is-external=true" target="_top" title="https://docs.oracle.com/en/java/javase/21/docs/api/java.base/java/lang/Iterable.html?is-external=true" xlink:actuate="onRequest" xlink:href="https://docs.oracle.com/en/java/javase/21/docs/api/java.base/java/lang/Iterable.html?is-external=true" xlink:show="new" xlink:title="https://docs.oracle.com/en/java/javase/21/docs/api/java.base/java/lang/Iterable.html?is-external=true" xlink:type="simple"><g id="elem_Iterable"><rect codeLine="43" fill="#F1F1F1" height="96.8906" id="Iterable" rx="2.5" ry="2.5" style="stroke:#181818;stroke-width:0.5;" width="288.1172" x="22" y="39"/><ellipse cx="129.1655" cy="55" fill="#B4A7E5" rx="11" ry="11" style="stroke:#181818;stroke-width:1.0;"/><path d="M125.0874,50.7656 L125.0874,48.6094 L132.478,48.6094 L132.478,50.7656 L130.0093,50.7656 L130.0093,58.8438 L132.478,58.8438 L132.478,61 L125.0874,61 L125.0874,58.8438 L127.5562,58.8438 L127.5562,50.7656 L125.0874,50.7656 Z " fill="#000000"/><text fill="#000000" font-family="sans-serif" font-size="14" font-style="italic" lengthAdjust="spacing" textLength="53.9561" x="149.6655" y="59.8467">Iterable</text><rect fill="#FFFFFF" height="15.9688" style="stroke:#181818;stroke-width:1.0;stroke-dasharray:2.0,2.0;" width="9.3301" x="303.7871" y="36"/><text fill="#000000" font-family="sans-serif" font-size="12" font-style="italic" lengthAdjust="spacing" textLength="7.3301" x="304.7871" y="48.1387">T</text><line style="stroke:#181818;stroke-width:0.5;" x1="23" x2="309.1172" y1="71" y2="71"/><line style="stroke:#181818;stroke-width:0.5;" x1="23" x2="309.1172" y1="79" y2="79"/><ellipse cx="33" cy="92.6484" fill="#84BE84" rx="3" ry="3" style="stroke:#038048;stroke-width:1.0;"/><text fill="#000000" font-family="sans-serif" font-size="14" font-style="italic" lengthAdjust="spacing" textLength="156.6182" x="42" y="95.9951">iterator(): Iterator&lt;T&gt;</text><ellipse cx="33" cy="108.9453" fill="#84BE84" rx="3" ry="3" style="stroke:#038048;stroke-width:1.0;"/><text fill="#000000" font-family="sans-serif" font-size="14" lengthAdjust="spacing" textLength="262.1172" x="42" y="112.292">forEach(Consumer&lt;? super T&gt;): void</text><ellipse cx="33" cy="125.2422" fill="#84BE84" rx="3" ry="3" style="stroke:#038048;stroke-width:1.0;"/><text fill="#000000" font-family="sans-serif" font-size="14" lengthAdjust="spacing" textLength="198.1123" x="42" y="128.5889">spliterator(): Spliterator&lt;T&gt;</text></g></a><!--class Iterator--><a href="https://docs.oracle.com/en/java/javase/21/docs/api/java.base/java/util/Iterator.html?is-external=true" target="_top" title="https://docs.oracle.com/en/java/javase/21/docs/api/java.base/java/util/Iterator.html?is-external=true" xlink:actuate="onRequest" xlink:href="https://docs.oracle.com/en/java/javase/21/docs/api/java.base/java/util/Iterator.html?is-external=true" xlink:show="new" xlink:title="https://docs.oracle.com/en/java/javase/21/docs/api/java.base/java/util/Iterator.html?is-external=true" xlink:type="simple"><g id="elem_Iterator"><rect codeLine="51" fill="#F1F1F1" height="113.1875" id="Iterator" rx="2.5" ry="2.5" style="stroke:#181818;stroke-width:0.5;" width="363.3809" x="440.5" y="31"/><ellipse cx="585.9609" cy="47" fill="#B4A7E5" rx="11" ry="11" style="stroke:#181818;stroke-width:1.0;"/><path d="M581.8828,42.7656 L581.8828,40.6094 L589.2734,40.6094 L589.2734,42.7656 L586.8047,42.7656 L586.8047,50.8438 L589.2734,50.8438 L589.2734,53 L581.8828,53 L581.8828,50.8438 L584.3516,50.8438 L584.3516,42.7656 L581.8828,42.7656 Z " fill="#000000"/><text fill="#000000" font-family="sans-serif" font-size="14" font-style="italic" lengthAdjust="spacing" textLength="52.377" x="606.4609" y="51.8467">Iterator</text><rect fill="#FFFFFF" height="15.9688" style="stroke:#181818;stroke-width:1.0;stroke-dasharray:2.0,2.0;" width="9.582" x="797.2988" y="28"/><text fill="#000000" font-family="sans-serif" font-size="12" font-style="italic" lengthAdjust="spacing" textLength="7.582" x="798.2988" y="40.1387">E</text><line style="stroke:#181818;stroke-width:0.5;" x1="441.5" x2="802.8809" y1="63" y2="63"/><line style="stroke:#181818;stroke-width:0.5;" x1="441.5" x2="802.8809" y1="71" y2="71"/><ellipse cx="451.5" cy="84.6484" fill="#84BE84" rx="3" ry="3" style="stroke:#038048;stroke-width:1.0;"/><text fill="#000000" font-family="sans-serif" font-size="14" font-style="italic" lengthAdjust="spacing" textLength="133.6699" x="460.5" y="87.9951">hasNext(): boolean</text><ellipse cx="451.5" cy="100.9453" fill="#84BE84" rx="3" ry="3" style="stroke:#038048;stroke-width:1.0;"/><text fill="#000000" font-family="sans-serif" font-size="14" font-style="italic" lengthAdjust="spacing" textLength="60.1973" x="460.5" y="104.292">next(): E</text><ellipse cx="451.5" cy="117.2422" fill="#84BE84" rx="3" ry="3" style="stroke:#038048;stroke-width:1.0;"/><text fill="#000000" font-family="sans-serif" font-size="14" lengthAdjust="spacing" textLength="103.1885" x="460.5" y="120.5889">remove(): void</text><ellipse cx="451.5" cy="133.5391" fill="#84BE84" rx="3" ry="3" style="stroke:#038048;stroke-width:1.0;"/><text fill="#000000" font-family="sans-serif" font-size="14" lengthAdjust="spacing" textLength="337.3809" x="460.5" y="136.8857">forEachRemaining(Consumer&lt;? super E&gt;): void</text></g></a><polygon fill="none" points="166,136.1156,160,154.1156,172,154.1156,166,136.1156" style="stroke:#181818;stroke-width:1.0;"/><path d="M166,154.1156 C166,169.309 166,168.8223 166,186.617 " fill="none" style="stroke:#181818;stroke-width:1.0;stroke-dasharray:7.0,7.0;"/><polygon fill="none" points="650.253,144.2138,653.0427,162.9812,663.7452,157.5539,650.253,144.2138" style="stroke:#181818;stroke-width:1.0;"/><path d="M658.394,160.2675 C672.6346,188.3496 681.8309,206.4843 696.6089,235.626 " fill="none" style="stroke:#181818;stroke-width:1.0;stroke-dasharray:7.0,7.0;"/><polygon fill="none" points="575.7919,144.2138,559.6826,154.2383,568.9192,161.899,575.7919,144.2138" style="stroke:#181818;stroke-width:1.0;"/><path d="M564.3009,158.0686 C541.0101,186.1507 524.1457,206.4843 499.976,235.626 " fill="none" style="stroke:#181818;stroke-width:1.0;stroke-dasharray:7.0,7.0;"/><text fill="#888888" font-family="sans-serif" font-size="10" lengthAdjust="spacing" textLength="3.1787" x="509.4106" y="433.2822">&#160;</text><text fill="#888888" font-family="sans-serif" font-size="10" lengthAdjust="spacing" textLength="183.0908" x="419.4546" y="444.9229">UMLDoclet 2.2.0, PlantUML 1.2024.6</text><!--SRC=[hLLDRzim3BttLsY70Iuwoskmav6bsDfi2D1jnPATkXuKcx6vsf8XqK4_bly- -IEftSWDKCm7sz8Z7yL7ccQCiJU55aakM2RkLKdCv412YYEBC0Ds3ONGWfHcONXKxnOYkXK9C2HUIioHnyWBhP8HJqy_iCV6gBgYJ1Z3PfBcGEOyGv34hgzxQvvIdjtSM2_MkHuD2S9emqvoWTARaqQPNDySXsojCDwPRjoXTZ7Sv3va9cINQ6XipI01FUdX9uspT-pSRHvzp4-0PZA6EmybsKFQUzyNfG5DBTfBeOOrv6eDWp2QcMp1fL8P2Dd73Jw0vmeRfKePDuG4TL4hSDQ-k-NmDHG_RZr7S9VyNq4sP4qHTilNbSB7-Cvn-2wnr_D-LhDKcEzmHzwGSh85M_VXpAuqvc1iJitBG3QHa376Wc3_pFvAbJ9kl5zilWD7zj5Su1eDBZFuVF_fouxrfGOvaEQc_rd_4Ml1Co6JJdgM7FHAHD0qYmq-Naoi72bHOS8WY5LakD8Yoe17AWz01XLDVJCGZ4vhYq0KM6_nPRLRMrI1WYrfhUiP6jyU6BGKsKVI9UoF1x4qP8FHPg2H5yz4NIaz5L7gdIjfoXpq-8oPiW3D5XFd5sUAhCixVrfsgJU3wfM4sR1w5Stq_wXN1GgsfAzGxq2tTKstJJHrpYwdZAtiFw6QudQ2x-i_dUpFz8wekrOCmssBiF5Vpjs_7cjK3-SdrqgUrhKQIGTSTpFbLGJDjrsxHb0LdAsKgXw_vQzlbnVA5fVOY8_u-tViokP4TfUzNOCsgAHt_0y0]--></g></svg>