<svg xmlns="http://www.w3.org/2000/svg" xmlns:xlink="http://www.w3.org/1999/xlink" contentStyleType="text/css" height="514px" preserveAspectRatio="none" style="width:555px;height:514px;background:#FFFFFF;" version="1.1" viewBox="0 0 555 514" width="555px" zoomAndPan="magnify"><defs/><g><!--cluster it.unimi.di.prog2.s10--><g id="cluster_it.unimi.di.prog2.s10"><path d="M16.5,4 L183.3262,4 A3.75,3.75 0 0 1 185.8262,6.5 L192.8262,26.2969 L545.5,26.2969 A2.5,2.5 0 0 1 548,28.7969 L548,478.5 A2.5,2.5 0 0 1 545.5,481 L16.5,481 A2.5,2.5 0 0 1 14,478.5 L14,6.5 A2.5,2.5 0 0 1 16.5,4 " fill="none" style="stroke:#000000;stroke-width:1.5;"/><line style="stroke:#000000;stroke-width:1.5;" x1="14" x2="192.8262" y1="26.2969" y2="26.2969"/><text fill="#000000" font-family="sans-serif" font-size="14" font-weight="bold" lengthAdjust="spacing" textLength="165.8262" x="18" y="18.9951">it.unimi.di.prog2.s10</text></g><!--class BoundedIntQueue--><a href="BoundedIntQueue.html" target="_top" title="BoundedIntQueue.html" xlink:actuate="onRequest" xlink:href="BoundedIntQueue.html" xlink:show="new" xlink:title="BoundedIntQueue.html" xlink:type="simple"><g id="elem_BoundedIntQueue"><rect codeLine="6" fill="#F1F1F1" height="194.6719" id="BoundedIntQueue" rx="2.5" ry="2.5" style="stroke:#181818;stroke-width:0.5;" width="181.9619" x="81" y="31"/><ellipse cx="106.4291" cy="47" fill="#ADD1B2" rx="11" ry="11" style="stroke:#181818;stroke-width:1.0;"/><path d="M109.3979,52.6406 Q108.8197,52.9375 108.1791,53.0781 Q107.5385,53.2344 106.8354,53.2344 Q104.3354,53.2344 103.0072,51.5938 Q101.6947,49.9375 101.6947,46.8125 Q101.6947,43.6875 103.0072,42.0313 Q104.3354,40.375 106.8354,40.375 Q107.5385,40.375 108.1791,40.5313 Q108.8354,40.6875 109.3979,40.9844 L109.3979,43.7031 Q108.7729,43.125 108.1791,42.8594 Q107.5854,42.5781 106.9604,42.5781 Q105.6166,42.5781 104.9291,43.6563 Q104.2416,44.7188 104.2416,46.8125 Q104.2416,48.9063 104.9291,49.9844 Q105.6166,51.0469 106.9604,51.0469 Q107.5854,51.0469 108.1791,50.7813 Q108.7729,50.5 109.3979,49.9219 L109.3979,52.6406 Z " fill="#000000"/><text fill="#000000" font-family="sans-serif" font-size="14" lengthAdjust="spacing" textLength="126.7861" x="122.7467" y="51.8467">BoundedIntQueue</text><line style="stroke:#181818;stroke-width:0.5;" x1="82" x2="261.9619" y1="63" y2="63"/><rect fill="none" height="6" style="stroke:#C82930;stroke-width:1.0;" width="6" x="89" y="73.6484"/><text fill="#000000" font-family="sans-serif" font-size="14" lengthAdjust="spacing" textLength="103.3662" x="101" y="79.9951">elements: int[]</text><rect fill="none" height="6" style="stroke:#C82930;stroke-width:1.0;" width="6" x="89" y="89.9453"/><text fill="#000000" font-family="sans-serif" font-size="14" lengthAdjust="spacing" textLength="62.3711" x="101" y="96.292">head: int</text><rect fill="none" height="6" style="stroke:#C82930;stroke-width:1.0;" width="6" x="89" y="106.2422"/><text fill="#000000" font-family="sans-serif" font-size="14" lengthAdjust="spacing" textLength="49.2666" x="101" y="112.5889">tail: int</text><line style="stroke:#181818;stroke-width:0.5;" x1="82" x2="261.9619" y1="119.8906" y2="119.8906"/><ellipse cx="92" cy="133.5391" fill="#84BE84" rx="3" ry="3" style="stroke:#038048;stroke-width:1.0;"/><text fill="#000000" font-family="sans-serif" font-size="14" lengthAdjust="spacing" textLength="155.9619" x="101" y="136.8857">BoundedIntQueue(int)</text><ellipse cx="92" cy="149.8359" fill="#84BE84" rx="3" ry="3" style="stroke:#038048;stroke-width:1.0;"/><text fill="#000000" font-family="sans-serif" font-size="14" lengthAdjust="spacing" textLength="132.3916" x="101" y="153.1826">isEmpty(): boolean</text><ellipse cx="92" cy="166.1328" fill="#84BE84" rx="3" ry="3" style="stroke:#038048;stroke-width:1.0;"/><text fill="#000000" font-family="sans-serif" font-size="14" lengthAdjust="spacing" textLength="111.9521" x="101" y="169.4795">isFull(): boolean</text><ellipse cx="92" cy="182.4297" fill="#84BE84" rx="3" ry="3" style="stroke:#038048;stroke-width:1.0;"/><text fill="#000000" font-family="sans-serif" font-size="14" lengthAdjust="spacing" textLength="65.4883" x="101" y="185.7764">size(): int</text><ellipse cx="92" cy="198.7266" fill="#84BE84" rx="3" ry="3" style="stroke:#038048;stroke-width:1.0;"/><text fill="#000000" font-family="sans-serif" font-size="14" lengthAdjust="spacing" textLength="129.3154" x="101" y="202.0732">enqueue(int): void</text><ellipse cx="92" cy="215.0234" fill="#84BE84" rx="3" ry="3" style="stroke:#038048;stroke-width:1.0;"/><text fill="#000000" font-family="sans-serif" font-size="14" lengthAdjust="spacing" textLength="99.7021" x="101" y="218.3701">dequeue(): int</text></g></a><!--class RationalNumberClient--><a href="RationalNumberClient.html" target="_top" title="RationalNumberClient.html" xlink:actuate="onRequest" xlink:href="RationalNumberClient.html" xlink:show="new" xlink:title="RationalNumberClient.html" xlink:type="simple"><g id="elem_RationalNumberClient"><rect codeLine="18" fill="#F1F1F1" height="64.2969" id="RationalNumberClient" rx="2.5" ry="2.5" style="stroke:#181818;stroke-width:0.5;" width="186.3623" x="281" y="96.5"/><ellipse cx="296" cy="112.5" fill="#ADD1B2" rx="11" ry="11" style="stroke:#181818;stroke-width:1.0;"/><path d="M298.9688,118.1406 Q298.3906,118.4375 297.75,118.5781 Q297.1094,118.7344 296.4063,118.7344 Q293.9063,118.7344 292.5781,117.0938 Q291.2656,115.4375 291.2656,112.3125 Q291.2656,109.1875 292.5781,107.5313 Q293.9063,105.875 296.4063,105.875 Q297.1094,105.875 297.75,106.0313 Q298.4063,106.1875 298.9688,106.4844 L298.9688,109.2031 Q298.3438,108.625 297.75,108.3594 Q297.1563,108.0781 296.5313,108.0781 Q295.1875,108.0781 294.5,109.1563 Q293.8125,110.2188 293.8125,112.3125 Q293.8125,114.4063 294.5,115.4844 Q295.1875,116.5469 296.5313,116.5469 Q297.1563,116.5469 297.75,116.2813 Q298.3438,116 298.9688,115.4219 L298.9688,118.1406 Z " fill="#000000"/><text fill="#000000" font-family="sans-serif" font-size="14" lengthAdjust="spacing" textLength="154.3623" x="310" y="117.3467">RationalNumberClient</text><line style="stroke:#181818;stroke-width:0.5;" x1="282" x2="466.3623" y1="128.5" y2="128.5"/><line style="stroke:#181818;stroke-width:0.5;" x1="282" x2="466.3623" y1="136.5" y2="136.5"/><ellipse cx="292" cy="150.1484" fill="#84BE84" rx="3" ry="3" style="stroke:#038048;stroke-width:1.0;"/><text fill="#000000" font-family="sans-serif" font-size="14" lengthAdjust="spacing" text-decoration="underline" textLength="137.4023" x="301" y="153.4951">main(String[]): void</text></g></a><!--class RationalNumber--><a href="RationalNumber.html" target="_top" title="RationalNumber.html" xlink:actuate="onRequest" xlink:href="RationalNumber.html" xlink:show="new" xlink:title="RationalNumber.html" xlink:type="simple"><g id="elem_RationalNumber"><rect codeLine="22" fill="#F1F1F1" height="210.9688" id="RationalNumber" rx="2.5" ry="2.5" style="stroke:#181818;stroke-width:0.5;" width="300.1553" x="22" y="262"/><ellipse cx="110.9116" cy="278" fill="#ADD1B2" rx="11" ry="11" style="stroke:#181818;stroke-width:1.0;"/><path d="M113.8804,283.6406 Q113.3022,283.9375 112.6616,284.0781 Q112.021,284.2344 111.3179,284.2344 Q108.8179,284.2344 107.4897,282.5938 Q106.1772,280.9375 106.1772,277.8125 Q106.1772,274.6875 107.4897,273.0313 Q108.8179,271.375 111.3179,271.375 Q112.021,271.375 112.6616,271.5313 Q113.3179,271.6875 113.8804,271.9844 L113.8804,274.7031 Q113.2554,274.125 112.6616,273.8594 Q112.0679,273.5781 111.4429,273.5781 Q110.0991,273.5781 109.4116,274.6563 Q108.7241,275.7188 108.7241,277.8125 Q108.7241,279.9063 109.4116,280.9844 Q110.0991,282.0469 111.4429,282.0469 Q112.0679,282.0469 112.6616,281.7813 Q113.2554,281.5 113.8804,280.9219 L113.8804,283.6406 Z " fill="#000000"/><text fill="#000000" font-family="sans-serif" font-size="14" lengthAdjust="spacing" textLength="113.832" x="131.4116" y="282.8467">RationalNumber</text><line style="stroke:#181818;stroke-width:0.5;" x1="23" x2="321.1553" y1="294" y2="294"/><ellipse cx="33" cy="307.6484" fill="none" rx="3" ry="3" style="stroke:#038048;stroke-width:1.0;"/><text fill="#000000" font-family="sans-serif" font-size="14" lengthAdjust="spacing" textLength="101.5615" x="42" y="310.9951">numerator: int</text><ellipse cx="33" cy="323.9453" fill="none" rx="3" ry="3" style="stroke:#038048;stroke-width:1.0;"/><text fill="#000000" font-family="sans-serif" font-size="14" lengthAdjust="spacing" textLength="117.1475" x="42" y="327.292">denominator: int</text><line style="stroke:#181818;stroke-width:0.5;" x1="23" x2="321.1553" y1="334.5938" y2="334.5938"/><ellipse cx="33" cy="348.2422" fill="#84BE84" rx="3" ry="3" style="stroke:#038048;stroke-width:1.0;"/><text fill="#000000" font-family="sans-serif" font-size="14" lengthAdjust="spacing" textLength="194.0859" x="42" y="351.5889">RationalNumber(long, long)</text><ellipse cx="33" cy="364.5391" fill="#84BE84" rx="3" ry="3" style="stroke:#038048;stroke-width:1.0;"/><text fill="#000000" font-family="sans-serif" font-size="14" lengthAdjust="spacing" textLength="143.0078" x="42" y="367.8857">RationalNumber(int)</text><rect fill="#F24D5C" height="6" style="stroke:#C82930;stroke-width:1.0;" width="6" x="30" y="377.8359"/><text fill="#000000" font-family="sans-serif" font-size="14" lengthAdjust="spacing" textLength="145.1064" x="42" y="384.1826">gcd(long, long): long</text><ellipse cx="33" cy="397.1328" fill="#84BE84" rx="3" ry="3" style="stroke:#038048;stroke-width:1.0;"/><text fill="#000000" font-family="sans-serif" font-size="14" lengthAdjust="spacing" textLength="274.1074" x="42" y="400.4795">add(RationalNumber): RationalNumber</text><ellipse cx="33" cy="413.4297" fill="#84BE84" rx="3" ry="3" style="stroke:#038048;stroke-width:1.0;"/><text fill="#000000" font-family="sans-serif" font-size="14" lengthAdjust="spacing" textLength="274.1553" x="42" y="416.7764">mul(RationalNumber): RationalNumber</text><ellipse cx="33" cy="429.7266" fill="#84BE84" rx="3" ry="3" style="stroke:#038048;stroke-width:1.0;"/><text fill="#000000" font-family="sans-serif" font-size="14" lengthAdjust="spacing" textLength="137.6074" x="42" y="433.0732">isInteger(): boolean</text><ellipse cx="33" cy="446.0234" fill="#84BE84" rx="3" ry="3" style="stroke:#038048;stroke-width:1.0;"/><text fill="#000000" font-family="sans-serif" font-size="14" lengthAdjust="spacing" textLength="141.7158" x="42" y="449.3701">isPositive(): boolean</text><ellipse cx="33" cy="462.3203" fill="#84BE84" rx="3" ry="3" style="stroke:#038048;stroke-width:1.0;"/><text fill="#000000" font-family="sans-serif" font-size="14" lengthAdjust="spacing" textLength="119.7725" x="42" y="465.667">isZero(): boolean</text></g></a><!--class BoundedIntQueueClient--><a href="BoundedIntQueueClient.html" target="_top" title="BoundedIntQueueClient.html" xlink:actuate="onRequest" xlink:href="BoundedIntQueueClient.html" xlink:show="new" xlink:title="BoundedIntQueueClient.html" xlink:type="simple"><g id="elem_BoundedIntQueueClient"><rect codeLine="35" fill="#F1F1F1" height="64.2969" id="BoundedIntQueueClient" rx="2.5" ry="2.5" style="stroke:#181818;stroke-width:0.5;" width="199.3164" x="340.5" y="335.5"/><ellipse cx="355.5" cy="351.5" fill="#ADD1B2" rx="11" ry="11" style="stroke:#181818;stroke-width:1.0;"/><path d="M358.4688,357.1406 Q357.8906,357.4375 357.25,357.5781 Q356.6094,357.7344 355.9063,357.7344 Q353.4063,357.7344 352.0781,356.0938 Q350.7656,354.4375 350.7656,351.3125 Q350.7656,348.1875 352.0781,346.5313 Q353.4063,344.875 355.9063,344.875 Q356.6094,344.875 357.25,345.0313 Q357.9063,345.1875 358.4688,345.4844 L358.4688,348.2031 Q357.8438,347.625 357.25,347.3594 Q356.6563,347.0781 356.0313,347.0781 Q354.6875,347.0781 354,348.1563 Q353.3125,349.2188 353.3125,351.3125 Q353.3125,353.4063 354,354.4844 Q354.6875,355.5469 356.0313,355.5469 Q356.6563,355.5469 357.25,355.2813 Q357.8438,355 358.4688,354.4219 L358.4688,357.1406 Z " fill="#000000"/><text fill="#000000" font-family="sans-serif" font-size="14" lengthAdjust="spacing" textLength="167.3164" x="369.5" y="356.3467">BoundedIntQueueClient</text><line style="stroke:#181818;stroke-width:0.5;" x1="341.5" x2="538.8164" y1="367.5" y2="367.5"/><line style="stroke:#181818;stroke-width:0.5;" x1="341.5" x2="538.8164" y1="375.5" y2="375.5"/><ellipse cx="351.5" cy="389.1484" fill="#84BE84" rx="3" ry="3" style="stroke:#038048;stroke-width:1.0;"/><text fill="#000000" font-family="sans-serif" font-size="14" lengthAdjust="spacing" text-decoration="underline" textLength="137.4023" x="360.5" y="392.4951">main(String[]): void</text></g></a><text fill="#888888" font-family="sans-serif" font-size="10" lengthAdjust="spacing" textLength="3.1787" x="267.9106" y="492.2822">&#160;</text><text fill="#888888" font-family="sans-serif" font-size="10" lengthAdjust="spacing" textLength="183.0908" x="177.9546" y="503.9229">UMLDoclet 2.2.0, PlantUML 1.2024.6</text><!--SRC=[hLJBJiCm4Bpp5Si1ALKXWXvpv2KX0U8XBfGUbdW9A-nrYErAKFNVSLEfgjEq20aVR6LcTiUQR080i5ytM1a4ZLysU726F0hkHGOSnMUgiK5l6oYAlHQjiVp0Ye1z7eGDvuhpkh7LA7Sdnp1RYXQhrEWSdDeWYjIL-Fj0WM0yxY3vkpTwCecLiBQEI9CXyQu05Z-UfEGxeMg95FR8UXCUTWopA1Ya2dONflPVsQ20LsireNJvow3rLjhnDot83MUIpvLZ0LFBAkKLBVbExRmRuWDwjeBwDfXNQiuqnsHYadrmVvmpvwEsdCFG84lsw1kMQZpfNkeNumtBVhEX14FjqFH4eaYiOTd2fkqpRQKwXCK-sAdRUAD7LQdMgulsI7kWKbdQ9yfI82qmGV-jW5sSEQhY1RSFrfrrx7bAEoJFrDW-UlxBjxQQarxyFmPbtkvbx1Q7uytQnV4YJpVNvxRKyUynoaVvyI7SQHGVKJYOKkDYNDdW1m00]--></g></svg>